<svg width="39" height="39" viewBox="0 0 39 39" fill="none" xmlns="http://www.w3.org/2000/svg">
<rect width="39" height="39" rx="9" fill="#2BA38D"/>
<path d="M12.5 22.9091V23.4773C12.5 23.9508 12.3297 24.353 11.989 24.6841C11.6491 25.0159 11.2361 25.1818 10.75 25.1818C10.2639 25.1818 9.85089 25.0159 9.511 24.6841C9.17033 24.353 9 23.9508 9 23.4773V14.9545L11.45 8.13636C11.5667 7.79545 11.7759 7.52083 12.0777 7.3125C12.3787 7.10417 12.7139 7 13.0833 7H25.9167C26.2861 7 26.6217 7.10417 26.9235 7.3125C27.2245 7.52083 27.4333 7.79545 27.55 8.13636L30 14.9545V23.4773C30 23.9508 29.8297 24.353 29.489 24.6841C29.1491 25.0159 28.7361 25.1818 28.25 25.1818C27.7639 25.1818 27.3509 25.0159 27.011 24.6841C26.6703 24.353 26.5 23.9508 26.5 23.4773V22.9091H12.5ZM12.2667 12.6818H26.7333L25.5083 9.27273H13.4917L12.2667 12.6818ZM14.25 19.5C14.7361 19.5 15.1491 19.3341 15.489 19.0023C15.8297 18.6712 16 18.2689 16 17.7955C16 17.322 15.8297 16.9197 15.489 16.5886C15.1491 16.2568 14.7361 16.0909 14.25 16.0909C13.7639 16.0909 13.3509 16.2568 13.011 16.5886C12.6703 16.9197 12.5 17.322 12.5 17.7955C12.5 18.2689 12.6703 18.6712 13.011 19.0023C13.3509 19.3341 13.7639 19.5 14.25 19.5ZM24.75 19.5C25.2361 19.5 25.6491 19.3341 25.989 19.0023C26.3297 18.6712 26.5 18.2689 26.5 17.7955C26.5 17.322 26.3297 16.9197 25.989 16.5886C25.6491 16.2568 25.2361 16.0909 24.75 16.0909C24.2639 16.0909 23.8509 16.2568 23.511 16.5886C23.1703 16.9197 23 17.322 23 17.7955C23 18.2689 23.1703 18.6712 23.511 19.0023C23.8509 19.3341 24.2639 19.5 24.75 19.5ZM20.6667 32L13.6667 28.5909H18.3333V26.3182L25.3333 29.7273H20.6667V32Z" fill="white"/>
</svg>
