<svg width="24" height="24" viewBox="0 0 24 24" fill="none" xmlns="http://www.w3.org/2000/svg">
<g clip-path="url(#clip0_41_446)">
<path d="M9.53443 0C8.22239 0.00942 7.18289 1.0171 7.12693 2.38188C7.13647 3.70992 8.15483 4.73924 9.53443 4.79C10.7629 4.77336 11.8542 3.7605 11.9163 2.38188C11.907 1.05924 10.8946 0.0603 9.53443 0ZM10.2 5.3275C9.65365 5.3275 9.19261 5.511 8.81693 5.87812C8.51171 6.18446 8.16999 6.86014 8.27943 7.4025H8.25381L9.66255 14.19C9.80785 14.9675 10.4477 15.4688 11.3019 15.5219C13.2642 15.5165 15.3921 15.4719 17.3976 15.4963L20.7788 21.3875C21.1592 22.1905 22.1335 22.3596 22.8407 21.7719C23.18 21.4352 23.3172 20.8624 23.0838 20.3631L19.1651 13.5494C18.8827 12.9652 18.3256 12.6361 17.6282 12.6019H13.2738L12.7619 10.0919H16.1682C16.9045 10.1464 17.435 9.58438 17.2826 8.81126C17.1705 8.4335 16.7791 8.0857 16.3219 8.06816H12.3263C12.1249 7.0389 12.157 6.4167 11.3657 5.7119C11.0327 5.45574 10.644 5.3275 10.2 5.3275ZM6.52567 8.2325C6.41741 8.23407 6.30966 8.24769 6.20441 8.27312C4.69553 8.86022 3.33807 9.86914 2.28565 11.27C1.35827 12.5777 0.839789 14.1519 0.800049 15.8806C0.815489 17.9295 1.69527 20.032 3.27193 21.6181C4.80009 23.0736 6.92123 23.9521 9.20131 24C10.8643 23.9908 12.5268 23.4997 14.0426 22.5275C15.404 21.6028 16.4708 20.2757 17.1157 18.6213C17.2352 18.3309 17.3378 18.0061 17.4232 17.6475C17.5482 17.0838 17.2318 16.6258 16.6294 16.4437C16.0815 16.3224 15.5916 16.6247 15.4001 17.2125C15.3492 17.4673 15.2719 17.7162 15.1694 17.955C14.7344 19.1051 13.9248 20.1007 12.8513 20.875C11.8076 21.5847 10.5576 21.9713 9.20131 22.0019C7.58833 21.9904 6.03467 21.3756 4.73193 20.2094C3.61255 19.1241 2.91229 17.5711 2.87505 15.8806C2.88221 14.6755 3.27029 13.4863 4.00193 12.41C4.71943 11.4139 5.72385 10.6446 6.94755 10.1431C7.46321 9.974 7.74101 9.44012 7.56193 8.8625C7.38895 8.44728 6.98145 8.22634 6.52567 8.2325Z" fill="#6B7072"/>
</g>
<defs>
<clipPath id="clip0_41_446">
<rect width="24" height="24" fill="white"/>
</clipPath>
</defs>
</svg>
