<?xml version="1.0" encoding="UTF-8"?>
<svg version="1.1" xmlns="http://www.w3.org/2000/svg" width="48" height="43">
<path d="M0 0 C15.84 0 31.68 0 48 0 C48 14.19 48 28.38 48 43 C32.16 43 16.32 43 0 43 C0 28.81 0 14.62 0 0 Z " fill="#B0799D" transform="translate(0,0)"/>
<path d="M0 0 C8.25 0 16.5 0 25 0 C25 0.66 25 1.32 25 2 C25.9075 2.0825 26.815 2.165 27.75 2.25 C31.52219194 3.12050583 32.68607113 3.94230828 35 7 C37.18122661 11.67405702 37.37054411 15.03177759 36 20 C34.22655325 22.86673637 32.2755853 25.51107857 30 28 C29.67 28 29.34 28 29 28 C28.90961901 22.84828377 29.15318867 18.08086796 30 13 C29.34 12.67 28.68 12.34 28 12 C28.04640625 13.25296875 28.0928125 14.5059375 28.140625 15.796875 C28.17814813 17.44789281 28.21454771 19.09893642 28.25 20.75 C28.30027344 21.9875 28.30027344 21.9875 28.3515625 23.25 C28.45112665 29.42297754 28.45112665 29.42297754 25.984375 32.578125 C25.32953125 33.04734375 24.6746875 33.5165625 24 34 C24.37125 33.113125 24.7425 32.22625 25.125 31.3125 C26.13196092 27.50043366 25.71608138 26.43216277 24 23 C23.64141484 21.67323492 23.2981424 20.34164079 23 19 C22.38125 18.87625 21.7625 18.7525 21.125 18.625 C19 18 19 18 17 16 C14.44539786 15.92727438 14.44539786 15.92727438 12 17 C10.62533375 19.47636012 10.62533375 19.47636012 10 22 C8.125 21.75 8.125 21.75 6 21 C4.75 18.9375 4.75 18.9375 4 17 C5.32 16.34 6.64 15.68 8 15 C7.34 14.01 6.68 13.02 6 12 C6 11.01 6 10.02 6 9 C5.34 9 4.68 9 4 9 C4.020625 10.11375 4.04125 11.2275 4.0625 12.375 C4 16 4 16 3 18 C0.6859378 18.73075648 -1.64828869 19.40138258 -4 20 C-4.11155758 18.54355382 -4.18713531 17.08435896 -4.25 15.625 C-4.29640625 14.81289062 -4.3428125 14.00078125 -4.390625 13.1640625 C-4 10 -4 10 0 0 Z " fill="#3B3569" transform="translate(8,0)"/>
<path d="M0 0 C2.64 0 5.28 0 8 0 C7.67515625 0.92619141 7.67515625 0.92619141 7.34375 1.87109375 C5.38255242 7.83640307 4.69655502 12.72880367 5 19 C5.33 18.67 5.66 18.34 6 18 C7.66617115 17.95936168 9.33388095 17.957279 11 18 C11.33 15.03 11.66 12.06 12 9 C12.66 9 13.32 9 14 9 C14.99 11.31 15.98 13.62 17 16 C15.02 16.99 15.02 16.99 13 18 C13.66 18.99 14.32 19.98 15 21 C15.99 21 16.98 21 18 21 C18.66 19.35 19.32 17.7 20 16 C21.65 16 23.3 16 25 16 C25.33 15.34 25.66 14.68 26 14 C26.33 14.99 26.66 15.98 27 17 C29.01508358 17.73323796 29.01508358 17.73323796 31 18 C31.33 17.34 31.66 16.68 32 16 C32 17.98 32 19.96 32 22 C32.33 22 32.66 22 33 22 C33.66 24.31 34.32 26.62 35 29 C34.34 29 33.68 29 33 29 C32.9175 29.78375 32.835 30.5675 32.75 31.375 C32 34 32 34 29.9375 35.3125 C29.298125 35.539375 28.65875 35.76625 28 36 C27 32.125 27 32.125 27 31 C25.88625 30.855625 24.7725 30.71125 23.625 30.5625 C20 30 20 30 18 29 C17.67 30.32 17.34 31.64 17 33 C16.70996094 32.04287109 16.70996094 32.04287109 16.4140625 31.06640625 C16.15367188 30.24011719 15.89328125 29.41382812 15.625 28.5625 C15.36976562 27.73878906 15.11453125 26.91507813 14.8515625 26.06640625 C14.19117773 23.82201984 14.19117773 23.82201984 12 23 C11.62875 24.60875 11.62875 24.60875 11.25 26.25 C9.98523025 30.04430924 9.22015645 31.69988825 6 34 C3.25 34.25 3.25 34.25 1 34 C0.67 35.32 0.34 36.64 0 38 C0 25.46 0 12.92 0 0 Z " fill="#F6CFAD" transform="translate(0,0)"/>
<path d="M0 0 C4.95 0 9.9 0 15 0 C15.02293216 4.80556067 15.04285248 9.61093215 15.05493164 14.41650391 C15.05996621 16.05192711 15.06679427 17.6873458 15.07543945 19.32275391 C15.08754335 21.67090975 15.093237 24.01900619 15.09765625 26.3671875 C15.10281754 27.10057343 15.10797882 27.83395935 15.11329651 28.58956909 C15.11387171 33.77225659 15.11387171 33.77225659 14 36 C12.0085944 36.38133299 10.00720923 36.71325582 8 37 C7.01 37.495 7.01 37.495 6 38 C5.87625 37.071875 5.87625 37.071875 5.75 36.125 C5.18741541 33.81562433 5.18741541 33.81562433 2.9375 32.75 C2.298125 32.5025 1.65875 32.255 1 32 C1.33 31.34 1.66 30.68 2 30 C2.15004973 28.6265365 2.24838006 27.2471474 2.31640625 25.8671875 C2.35830078 25.06152344 2.40019531 24.25585938 2.44335938 23.42578125 C2.48267578 22.58402344 2.52199219 21.74226563 2.5625 20.875 C2.60568359 20.02550781 2.64886719 19.17601563 2.69335938 18.30078125 C2.79954236 16.20071777 2.90028497 14.10038052 3 12 C3.99 12.33 4.98 12.66 6 13 C5.67 17.62 5.34 22.24 5 27 C9.94543548 21.04030224 9.94543548 21.04030224 11.0625 13.75 C9.73106302 8.99180072 9.73106302 8.99180072 7 5 C4.70294442 3.7312477 2.48647511 2.89137787 0 2 C0 1.34 0 0.68 0 0 Z " fill="#EB7FA8" transform="translate(33,0)"/>
<path d="M0 0 C0.99 0.33 1.98 0.66 3 1 C4.6875 4.5625 4.6875 4.5625 6 8 C6.33 8 6.66 8 7 8 C7.4640625 9.423125 7.4640625 9.423125 7.9375 10.875 C8.87394742 13.86080408 8.87394742 13.86080408 10 16 C9 19 9 19 7 20 C5.55151418 20.08342159 4.09929131 20.10732861 2.6484375 20.09765625 C1.79765625 20.09443359 0.946875 20.09121094 0.0703125 20.08789062 C-0.81914062 20.07951172 -1.70859375 20.07113281 -2.625 20.0625 C-3.5221875 20.05798828 -4.419375 20.05347656 -5.34375 20.04882812 C-7.56252831 20.03702611 -9.78127243 20.01909039 -12 20 C-11.505 15.545 -11.505 15.545 -11 11 C-10.071875 10.7525 -9.14375 10.505 -8.1875 10.25 C-4.73431661 8.89581043 -3.80136366 8.15238641 -2 5 C-1.28837557 3.35202764 -0.60968047 1.68834592 0 0 Z " fill="#B79D85" transform="translate(12,23)"/>
<path d="M0 0 C0.66 0.99 1.32 1.98 2 3 C4.05925139 3.72382467 4.05925139 3.72382467 6 4 C6.33 3.34 6.66 2.68 7 2 C7 3.98 7 5.96 7 8 C7.33 8 7.66 8 8 8 C8.66 10.31 9.32 12.62 10 15 C9.34 15 8.68 15 8 15 C7.9175 15.78375 7.835 16.5675 7.75 17.375 C7 20 7 20 4.9375 21.3125 C4.298125 21.539375 3.65875 21.76625 3 22 C2 18.125 2 18.125 2 17 C0.88625 16.87625 -0.2275 16.7525 -1.375 16.625 C-5 16 -5 16 -7 14 C-7.01171875 11.43359375 -7.01171875 11.43359375 -6.6875 8.4375 C-6.58824219 7.44621094 -6.48898438 6.45492188 -6.38671875 5.43359375 C-6 3 -6 3 -5 2 C-3.33382885 1.95936168 -1.66611905 1.957279 0 2 C0 1.34 0 0.68 0 0 Z " fill="#F5DEDA" transform="translate(25,14)"/>
<path d="M0 0 C6.84 1.976 6.84 1.976 9 5 C11.13532688 9.69771914 11.37268301 13.02402408 10 18 C8.22655325 20.86673637 6.2755853 23.51107857 4 26 C3.67 26 3.34 26 3 26 C2.90961901 20.84828377 3.15318867 16.08086796 4 11 C3.34 10.67 2.68 10.34 2 10 C1.3671875 7.71484375 1.3671875 7.71484375 0.875 4.9375 C0.70742188 4.01839844 0.53984375 3.09929688 0.3671875 2.15234375 C0.24601562 1.44207031 0.12484375 0.73179687 0 0 Z " fill="#3D325C" transform="translate(34,2)"/>
<path d="M0 0 C1.45880109 0.14107747 2.91703551 0.28802415 4.375 0.4375 C5.59316406 0.55931641 5.59316406 0.55931641 6.8359375 0.68359375 C9 1 9 1 11 2 C10.67 3.32 10.34 4.64 10 6 C10.99 6.33 11.98 6.66 13 7 C13 9.31 13 11.62 13 14 C9.04 14 5.08 14 1 14 C1.66 13.67 2.32 13.34 3 13 C2.78537109 12.15695313 2.78537109 12.15695313 2.56640625 11.296875 C1.98879098 8.95454547 1.45716693 6.60582341 0.9375 4.25 C0.76089844 3.45078125 0.58429687 2.6515625 0.40234375 1.828125 C0.26957031 1.22484375 0.13679688 0.6215625 0 0 Z " fill="#B06386" transform="translate(18,29)"/>
<path d="M0 0 C0.99 0 1.98 0 3 0 C3 1.32 3 2.64 3 4 C3.78375 4.144375 4.5675 4.28875 5.375 4.4375 C8 5 8 5 10 6 C10.33 5.34 10.66 4.68 11 4 C11.8971875 4.9590625 11.8971875 4.9590625 12.8125 5.9375 C14.90810337 8.20310389 14.90810337 8.20310389 18 9 C18.6875 11.0625 18.6875 11.0625 19 13 C14.125 12.125 14.125 12.125 13 11 C10.49675668 11.01666329 10.49675668 11.01666329 8 12 C6.62533375 14.47636012 6.62533375 14.47636012 6 17 C4.125 16.75 4.125 16.75 2 16 C0.75 13.9375 0.75 13.9375 0 12 C1.32 11.34 2.64 10.68 4 10 C3.34 9.01 2.68 8.02 2 7 C2 6.01 2 5.02 2 4 C1.34 4 0.68 4 0 4 C0 2.68 0 1.36 0 0 Z " fill="#4E3B66" transform="translate(12,5)"/>
<path d="M0 0 C2.64 0 5.28 0 8 0 C7.79503906 0.58265625 7.59007812 1.1653125 7.37890625 1.765625 C5.42602726 7.70835724 4.62770999 13.07972168 4.50390625 19.3359375 C4 22 4 22 0 26 C0 17.42 0 8.84 0 0 Z " fill="#F096C1" transform="translate(0,0)"/>
<path d="M0 0 C4.95 0 9.9 0 15 0 C15.25 10.625 15.25 10.625 13 14 C11 13 11 13 9.6875 9.625 C7.8608914 5.70117412 6.8545066 4.73452797 3 3 C2.01 2.67 1.02 2.34 0 2 C0 1.34 0 0.68 0 0 Z " fill="#A95C77" transform="translate(33,0)"/>
<path d="M0 0 C0.99 0.33 1.98 0.66 3 1 C4.47666292 4.49029418 4.07164685 8.27436386 4 12 C3.071875 11.938125 2.14375 11.87625 1.1875 11.8125 C-2.4889222 12.02876013 -2.6173102 12.51371499 -5 15 C-7.6875 15.1875 -7.6875 15.1875 -10 15 C-10 13.68 -10 12.36 -10 11 C-9.236875 10.7525 -8.47375 10.505 -7.6875 10.25 C-3.7399929 8.41395019 -2.50772921 6.17579397 -0.8125 2.25 C-0.544375 1.5075 -0.27625 0.765 0 0 Z " fill="#C59074" transform="translate(12,23)"/>
<path d="M0 0 C0.66 0 1.32 0 2 0 C3.59162079 5.57067277 4.20674944 10.21101581 4 16 C1.69 16.66 -0.62 17.32 -3 18 C-3.37634203 11.19796625 -2.77471079 6.24309927 0 0 Z " fill="#3E3363" transform="translate(7,2)"/>
<path d="M0 0 C0.66 0.99 1.32 1.98 2 3 C4.05925139 3.72382467 4.05925139 3.72382467 6 4 C6.33 3.34 6.66 2.68 7 2 C7 3.98 7 5.96 7 8 C7.33 8 7.66 8 8 8 C8.66 10.31 9.32 12.62 10 15 C9.34 15 8.68 15 8 15 C7.9175 15.78375 7.835 16.5675 7.75 17.375 C7 20 7 20 4.9375 21.3125 C4.298125 21.539375 3.65875 21.76625 3 22 C2.25 20.4375 2.25 20.4375 2 18 C3.13084437 15.49713591 4.52139516 13.32992278 6 11 C5.195625 10.401875 4.39125 9.80375 3.5625 9.1875 C1 7 1 7 0 4 C-2.01508358 3.26676204 -2.01508358 3.26676204 -4 3 C-4.33 3.66 -4.66 4.32 -5 5 C-5 4.01 -5 3.02 -5 2 C-3.35 2 -1.7 2 0 2 C0 1.34 0 0.68 0 0 Z " fill="#CBA4AC" transform="translate(25,14)"/>
<path d="M0 0 C1.18613892 0.00785522 1.18613892 0.00785522 2.39624023 0.01586914 C3.67724609 0.02070312 3.67724609 0.02070312 4.98413086 0.02563477 C5.88196289 0.03401367 6.77979492 0.04239258 7.70483398 0.05102539 C8.6065332 0.05553711 9.50823242 0.06004883 10.43725586 0.06469727 C12.67234712 0.07652315 14.90730835 0.09300319 17.14233398 0.11352539 C15.82233398 1.43352539 14.50233398 2.75352539 13.14233398 4.11352539 C12.15233398 3.78352539 11.16233398 3.45352539 10.14233398 3.11352539 C6.60054801 2.86348575 6.60054801 2.86348575 3.14233398 3.11352539 C2.48233398 3.77352539 1.82233398 4.43352539 1.14233398 5.11352539 C1.44047638 6.45516618 1.78374883 7.78676031 2.14233398 9.11352539 C2.18121747 11.44653472 2.18719748 13.7806234 2.14233398 16.11352539 C1.81233398 16.11352539 1.48233398 16.11352539 1.14233398 16.11352539 C-1.15379358 6.70350261 -1.15379358 6.70350261 -0.85766602 2.11352539 C-1.51766602 1.78352539 -2.17766602 1.45352539 -2.85766602 1.11352539 C-1.85766602 0.11352539 -1.85766602 0.11352539 0 0 Z " fill="#4B4479" transform="translate(9.857666015625,-0.113525390625)"/>
<path d="M0 0 C0.33 0 0.66 0 1 0 C1 2.97 1 5.94 1 9 C-1.97 9 -4.94 9 -8 9 C-8.3125 6.6875 -8.3125 6.6875 -8 4 C-5.6875 2.125 -5.6875 2.125 -3 1 C-2.01 1.33 -1.02 1.66 0 2 C0 1.34 0 0.68 0 0 Z " fill="#B06C86" transform="translate(47,34)"/>
<path d="M0 0 C0.99 0.33 1.98 0.66 3 1 C4.125 7.75 4.125 7.75 3 10 C-1.29 9.67 -5.58 9.34 -10 9 C-8.68 7.35 -7.36 5.7 -6 4 C-3.03 4.495 -3.03 4.495 0 5 C0 3.35 0 1.7 0 0 Z " fill="#D1AE90" transform="translate(16,30)"/>
<path d="M0 0 C0.66 0.66 1.32 1.32 2 2 C3.33599921 1.67751743 4.66893378 1.34227417 6 1 C8.75 1.4375 8.75 1.4375 11 2 C11.33 2.99 11.66 3.98 12 5 C11.01 5 10.02 5 9 5 C8.67 6.32 8.34 7.64 8 9 C7.01 8.67 6.02 8.34 5 8 C5 6.68 5 5.36 5 4 C4.01 4 3.02 4 2 4 C1.67 5.32 1.34 6.64 1 8 C0.67 5.36 0.34 2.72 0 0 Z " fill="#2E2F68" transform="translate(10,1)"/>
<path d="M0 0 C2.475 0.99 2.475 0.99 5 2 C4.67 2.99 4.34 3.98 4 5 C5.32 5.33 6.64 5.66 8 6 C8.33 7.32 8.66 8.64 9 10 C6 12 6 12 3 12 C2.14302306 9.42906918 1.51199363 6.95517072 0.9375 4.3125 C0.76089844 3.50425781 0.58429687 2.69601563 0.40234375 1.86328125 C0.26957031 1.24839844 0.13679688 0.63351563 0 0 Z " fill="#533A58" transform="translate(18,29)"/>
<path d="M0 0 C0.99 0.33 1.98 0.66 3 1 C2.91621094 1.98742187 2.83242188 2.97484375 2.74609375 3.9921875 C2.64425781 5.27351563 2.54242188 6.55484375 2.4375 7.875 C2.28087891 9.78925781 2.28087891 9.78925781 2.12109375 11.7421875 C1.74316633 14.88643942 1.74316633 14.88643942 3 17 C3.66 17.33 4.32 17.66 5 18 C2.625 19.5625 2.625 19.5625 0 21 C-0.66 20.67 -1.32 20.34 -2 20 C-1.67 19.34 -1.34 18.68 -1 18 C-0.84995027 16.6265365 -0.75161994 15.2471474 -0.68359375 13.8671875 C-0.64169922 13.06152344 -0.59980469 12.25585938 -0.55664062 11.42578125 C-0.51732422 10.58402344 -0.47800781 9.74226563 -0.4375 8.875 C-0.39431641 8.02550781 -0.35113281 7.17601562 -0.30664062 6.30078125 C-0.20045764 4.20071777 -0.09971503 2.10038052 0 0 Z " fill="#B77998" transform="translate(36,12)"/>
<path d="M0 0 C0.33 0 0.66 0 1 0 C1 3.63 1 7.26 1 11 C-0.32 11 -1.64 11 -3 11 C-3 11.66 -3 12.32 -3 13 C-4.375 14.625 -4.375 14.625 -6 16 C-6.66 16 -7.32 16 -8 16 C-6.91865204 13.75412346 -5.78496541 11.66454604 -4.4375 9.5625 C-2.98108433 6.96628077 -2.54741927 4.89350186 -2 2 C-1.34 1.34 -0.68 0.68 0 0 Z " fill="#D081A6" transform="translate(47,11)"/>
<path d="M0 0 C1.43655854 -0.08131463 2.8744483 -0.13933559 4.3125 -0.1875 C5.51326172 -0.23970703 5.51326172 -0.23970703 6.73828125 -0.29296875 C9 0 9 0 10.78125 1.34375 C12.44546615 3.60537707 12.22189312 5.26331821 12 8 C9.73286083 6.90841447 7.58830248 5.74896492 5.4375 4.4375 C2.99345222 2.88141236 2.99345222 2.88141236 0 2 C0 1.34 0 0.68 0 0 Z " fill="#D06A84" transform="translate(33,0)"/>
<path d="M0 0 C1.32 0 2.64 0 4 0 C4.02694851 1.95825873 4.04637218 3.91662226 4.0625 5.875 C4.07410156 6.96554688 4.08570313 8.05609375 4.09765625 9.1796875 C4 12 4 12 3 14 C2.34 14 1.68 14 1 14 C1.33 10.7 1.66 7.4 2 4 C0.35 4 -1.3 4 -3 4 C-2.67 3.34 -2.34 2.68 -2 2 C-1.34 2 -0.68 2 0 2 C0 1.34 0 0.68 0 0 Z " fill="#EB8F97" transform="translate(44,22)"/>
<path d="M0 0 C0.66 0.99 1.32 1.98 2 3 C4.05925139 3.72382467 4.05925139 3.72382467 6 4 C6.33 3.34 6.66 2.68 7 2 C6.979375 2.94875 6.95875 3.8975 6.9375 4.875 C6.77448174 7.90666283 6.77448174 7.90666283 8 10 C5.03824877 9.38722388 3.61941217 8.74627478 1 7 C0.67 6.01 0.34 5.02 0 4 C-2.01508358 3.26676204 -2.01508358 3.26676204 -4 3 C-4.33 3.66 -4.66 4.32 -5 5 C-5 4.01 -5 3.02 -5 2 C-3.35 2 -1.7 2 0 2 C0 1.34 0 0.68 0 0 Z " fill="#E5C2CD" transform="translate(25,14)"/>
<path d="M0 0 C0.66 0.99 1.32 1.98 2 3 C3.65 3.33 5.3 3.66 7 4 C6.34 7.63 5.68 11.26 5 15 C3.06061181 12.09091772 2.03225043 9.59137621 0.875 6.3125 C0.52179687 5.31863281 0.16859375 4.32476562 -0.1953125 3.30078125 C-0.46085938 2.54152344 -0.72640625 1.78226563 -1 1 C-0.67 0.67 -0.34 0.34 0 0 Z " fill="#EAC5B9" transform="translate(13,18)"/>
<path d="M0 0 C0.66 0 1.32 0 2 0 C2.78774617 8.03501094 2.78774617 8.03501094 -0.5 12.0625 C-1.325 12.701875 -2.15 13.34125 -3 14 C-3.125 6.25 -3.125 6.25 -2 4 C-1.34 4 -0.68 4 0 4 C0 2.68 0 1.36 0 0 Z " fill="#271C3F" transform="translate(40,14)"/>
<path d="M0 0 C2 2 2 2 2.22705078 3.87939453 C2.21657715 4.62302246 2.20610352 5.36665039 2.1953125 6.1328125 C2.18886719 6.93847656 2.18242188 7.74414062 2.17578125 8.57421875 C2.15902344 9.41597656 2.14226563 10.25773437 2.125 11.125 C2.11597656 11.97449219 2.10695313 12.82398438 2.09765625 13.69921875 C2.07405647 15.79959884 2.03818483 17.89983444 2 20 C1.67 20 1.34 20 1 20 C0.89042969 19.09636719 0.78085937 18.19273438 0.66796875 17.26171875 C0.50941406 16.08222656 0.35085937 14.90273438 0.1875 13.6875 C-0.03873047 11.92986328 -0.03873047 11.92986328 -0.26953125 10.13671875 C-0.99864995 7.00579726 -1.49171464 5.90354807 -4 4 C-3.67 3.34 -3.34 2.68 -3 2 C-2.01 2.33 -1.02 2.66 0 3 C0 2.01 0 1.02 0 0 Z " fill="#262558" transform="translate(33,6)"/>
<path d="M0 0 C0.66 0 1.32 0 2 0 C2.99 2.31 3.98 4.62 5 7 C4.360625 7.12375 3.72125 7.2475 3.0625 7.375 C2.381875 7.58125 1.70125 7.7875 1 8 C0.67 8.66 0.34 9.32 0 10 C-1.9375 10.75 -1.9375 10.75 -4 11 C-4.66 10.34 -5.32 9.68 -6 9 C-4.35 9 -2.7 9 -1 9 C-0.67 6.03 -0.34 3.06 0 0 Z M-6 11 C-5.01 11.495 -5.01 11.495 -4 12 C-4.99 12.495 -4.99 12.495 -6 13 C-6 12.34 -6 11.68 -6 11 Z " fill="#D8B7BA" transform="translate(12,9)"/>
<path d="M0 0 C0.99 0.33 1.98 0.66 3 1 C3.625 3.875 3.625 3.875 4 7 C3.34 7.66 2.68 8.32 2 9 C1.34 9 0.68 9 0 9 C0 8.34 0 7.68 0 7 C-0.66 7 -1.32 7 -2 7 C-1.34 4.69 -0.68 2.38 0 0 Z " fill="#DDA184" transform="translate(12,23)"/>
<path d="M0 0 C0.33 0.66 0.66 1.32 1 2 C0.0625 4.625 0.0625 4.625 -1 7 C-2.875 6.75 -2.875 6.75 -5 6 C-6.25 3.9375 -6.25 3.9375 -7 2 C-4.69 1.34 -2.38 0.68 0 0 Z " fill="#865E7F" transform="translate(19,15)"/>
<path d="M0 0 C0.33 1.32 0.66 2.64 1 4 C4.3 4 7.6 4 11 4 C10.01 5.485 10.01 5.485 9 7 C6.6171875 7.29296875 6.6171875 7.29296875 3.875 7.1875 C2.96492187 7.16042969 2.05484375 7.13335937 1.1171875 7.10546875 C0.41851562 7.07066406 -0.28015625 7.03585938 -1 7 C-0.67 4.69 -0.34 2.38 0 0 Z " fill="#C8A486" transform="translate(1,34)"/>
<path d="M0 0 C0.33 0 0.66 0 1 0 C2.61050328 10.15317287 2.61050328 10.15317287 0.0625 13.6875 C-0.618125 14.120625 -1.29875 14.55375 -2 15 C-2.19392201 9.47322267 -1.7479503 5.24385089 0 0 Z " fill="#E18FB0" transform="translate(2,11)"/>
<path d="M0 0 C-0.33 1.32 -0.66 2.64 -1 4 C-0.01 4.33 0.98 4.66 2 5 C2 5.99 2 6.98 2 8 C1.34 8 0.68 8 0 8 C0 7.34 0 6.68 0 6 C-0.99 6 -1.98 6 -3 6 C-3 5.34 -3 4.68 -3 4 C-4.32 3.67 -5.64 3.34 -7 3 C-6.67 2.01 -6.34 1.02 -6 0 C-3.42525708 -0.99667468 -2.51072708 -1.25536354 0 0 Z " fill="#B8879F" transform="translate(29,31)"/>
<path d="M0 0 C0.66 0.33 1.32 0.66 2 1 C1.69255859 1.80050781 1.69255859 1.80050781 1.37890625 2.6171875 C-0.717157 8.41395572 -1.62810501 13.85732066 -2 20 C-2.33 20 -2.66 20 -3 20 C-3.08165496 17.79229195 -3.13948488 15.58369575 -3.1875 13.375 C-3.23970703 11.53035156 -3.23970703 11.53035156 -3.29296875 9.6484375 C-2.9787947 5.73592336 -1.96906533 3.35929782 0 0 Z " fill="#D596BD" transform="translate(6,0)"/>
<path d="M0 0 C2.26562673 2.26562673 2.94462749 3.84160705 3.09765625 7.04296875 C3.06510417 9.02864583 3.03255208 11.01432292 3 13 C2.01 13 1.02 13 0 13 C0 8.71 0 4.42 0 0 Z " fill="#2D2851" transform="translate(8,5)"/>
<path d="M0 0 C2.5654594 2.5654594 2.54046087 4.47686668 3 8 C1.35 8 -0.3 8 -2 8 C-2.33 6.35 -2.66 4.7 -3 3 C-2.01 3.495 -2.01 3.495 -1 4 C-0.67 2.68 -0.34 1.36 0 0 Z " fill="#616B88" transform="translate(35,35)"/>
<path d="M0 0 C0.763125 0.639375 1.52625 1.27875 2.3125 1.9375 C4.88246713 4.14232781 4.88246713 4.14232781 8 5 C8.6875 7.0625 8.6875 7.0625 9 9 C6.6875 8.8125 6.6875 8.8125 4 8 C2.06208579 5.36997358 1.03295481 3.09886444 0 0 Z " fill="#8A6596" transform="translate(22,9)"/>
<path d="M0 0 C2.475 0.495 2.475 0.495 5 1 C5.33 2.32 5.66 3.64 6 5 C4.02 5.33 2.04 5.66 0 6 C0 4.02 0 2.04 0 0 Z " fill="#232859" transform="translate(36,6)"/>
<path d="M0 0 C1.953125 0.7109375 1.953125 0.7109375 4 2 C4.609375 4.1640625 4.609375 4.1640625 4.75 6.625 C4.80671875 7.44226563 4.8634375 8.25953125 4.921875 9.1015625 C4.94765625 9.72804688 4.9734375 10.35453125 5 11 C4.01 11.33 3.02 11.66 2 12 C2.04125 10.948125 2.0825 9.89625 2.125 8.8125 C2.00852125 5.25989827 1.52791932 3.15133359 0 0 Z " fill="#736081" transform="translate(29,11)"/>
<path d="M0 0 C1.98 0 3.96 0 6 0 C6 2.31 6 4.62 6 7 C1.125 2.25 1.125 2.25 0 0 Z " fill="#5D3D74" transform="translate(42,0)"/>
<path d="M0 0 C0.33 0.66 0.66 1.32 1 2 C1.99 2 2.98 2 4 2 C3.67 3.32 3.34 4.64 3 6 C2.67 6 2.34 6 2 6 C2 6.99 2 7.98 2 9 C1.34 9 0.68 9 0 9 C-0.87890625 2.84765625 -0.87890625 2.84765625 -1 1 C-0.67 0.67 -0.34 0.34 0 0 Z " fill="#8F7493" transform="translate(31,34)"/>
<path d="M0 0 C0.3125 2.3125 0.3125 2.3125 0 5 C-2.5 6.8125 -2.5 6.8125 -5 8 C-5.33 7.01 -5.66 6.02 -6 5 C-1.125 0 -1.125 0 0 0 Z " fill="#D37496" transform="translate(45,30)"/>
<path d="M0 0 C0.99 0.33 1.98 0.66 3 1 C2.74438677 3.3431213 2.40729228 5.67843403 2 8 C1.01 8.495 1.01 8.495 0 9 C0 6.03 0 3.06 0 0 Z " fill="#C5A6BC" transform="translate(36,12)"/>
<path d="M0 0 C0.33 0 0.66 0 1 0 C1.125 5.75 1.125 5.75 0 8 C-0.66 8 -1.32 8 -2 8 C-1.125 1.125 -1.125 1.125 0 0 Z " fill="#ECBEA7" transform="translate(47,28)"/>
<path d="M0 0 C2 0.3125 2 0.3125 4 1 C4.33 1.66 4.66 2.32 5 3 C3.35 3 1.7 3 0 3 C-0.33 4.32 -0.66 5.64 -1 7 C-1.04254356 5.00045254 -1.04080783 2.99958364 -1 1 C-0.67 0.67 -0.34 0.34 0 0 Z " fill="#E3BE9B" transform="translate(1,31)"/>
<path d="M0 0 C0.66 0 1.32 0 2 0 C2 2.97 2 5.94 2 9 C1.34 9 0.68 9 0 9 C-0.66 7.35 -1.32 5.7 -2 4 C-1.34 4 -0.68 4 0 4 C0 2.68 0 1.36 0 0 Z " fill="#282754" transform="translate(40,14)"/>
<path d="M0 0 C4.75 0.75 4.75 0.75 7 3 C6.67 3.99 6.34 4.98 6 6 C6 5.34 6 4.68 6 4 C5.38125 3.896875 4.7625 3.79375 4.125 3.6875 C2 3 2 3 0 0 Z " fill="#3E2A54" transform="translate(24,10)"/>
<path d="M0 0 C0.33 1.32 0.66 2.64 1 4 C-0.98 4.99 -0.98 4.99 -3 6 C-3.33 5.01 -3.66 4.02 -4 3 C-2.68 2.01 -1.36 1.02 0 0 Z " fill="#DFCCD1" transform="translate(31,30)"/>
<path d="M0 0 C2.625 0.375 2.625 0.375 5 1 C5 1.66 5 2.32 5 3 C3.02 3.99 3.02 3.99 1 5 C0.01 4.01 -0.98 3.02 -2 2 C-1.34 1.34 -0.68 0.68 0 0 Z " fill="#E074A4" transform="translate(38,30)"/>
<path d="M0 0 C0.99 0 1.98 0 3 0 C3 1.32 3 2.64 3 4 C3.66 4.33 4.32 4.66 5 5 C4.34 5 3.68 5 3 5 C2.67 5.66 2.34 6.32 2 7 C2 6.01 2 5.02 2 4 C1.34 4 0.68 4 0 4 C0 2.68 0 1.36 0 0 Z " fill="#634C7A" transform="translate(12,5)"/>
<path d="M0 0 C2.31 0 4.62 0 7 0 C6.67 0.99 6.34 1.98 6 3 C3.03 2.505 3.03 2.505 0 2 C0 1.34 0 0.68 0 0 Z " fill="#DFC4BF" transform="translate(33,0)"/>
</svg>
