<?xml version="1.0" encoding="UTF-8"?>
<svg version="1.1" xmlns="http://www.w3.org/2000/svg" width="48" height="51">
<path d="M0 0 C15.84 0 31.68 0 48 0 C48 16.83 48 33.66 48 51 C32.16 51 16.32 51 0 51 C0 34.17 0 17.34 0 0 Z " fill="#1A1470" transform="translate(0,0)"/>
<path d="M0 0 C1.52208879 1.92263847 2.89058153 3.78287942 3.99609375 5.9765625 C6.26616065 10.37537465 6.26616065 10.37537465 10.32421875 12.9609375 C12.55672179 13.44458808 14.72544727 13.8017819 17 14 C17 13.34 17 12.68 17 12 C18.97746603 11.26919734 20.98072489 10.60578253 23 10 C23.66 10.33 24.32 10.66 25 11 C25 12.98 25 14.96 25 17 C25.66 17 26.32 17 27 17 C27 15.35 27 13.7 27 12 C27.66 12 28.32 12 29 12 C29 12.99 29 13.98 29 15 C30.65 15 32.3 15 34 15 C34 24.24 34 33.48 34 43 C28.1528125 43.12375 28.1528125 43.12375 22.1875 43.25 C20.34901489 43.30462402 20.34901489 43.30462402 18.47338867 43.36035156 C17.5063501 43.3703418 16.53931152 43.38033203 15.54296875 43.390625 C14.55321045 43.41157227 13.56345215 43.43251953 12.54370117 43.45410156 C10 43 10 43 8.1965332 41.17871094 C6.71519811 38.48141765 6.3453492 36.03907294 6 33 C6.66 33 7.32 33 8 33 C7.34 32.01 6.68 31.02 6 30 C5.01 30.33 4.02 30.66 3 31 C-1 24.375 -1 24.375 -1 21 C-2.43990623 18.82967524 -2.43990623 18.82967524 -4 17 C-3.34 15.68 -2.68 14.36 -2 13 C-1.67 13.66 -1.34 14.32 -1 15 C0.32 14.67 1.64 14.34 3 14 C2.505 13.5875 2.01 13.175 1.5 12.75 C0 11 0 11 0 7 C-0.99 7 -1.98 7 -3 7 C-1.125 1.125 -1.125 1.125 0 0 Z " fill="#584AA9" transform="translate(14,8)"/>
<path d="M0 0 C15.84 0 31.68 0 48 0 C48 23 48 23 46 26 C46 25.01 46 24.02 46 23 C45.01 23 44.02 23 43 23 C43 22.01 43 21.02 43 20 C42.34 20 41.68 20 41 20 C41 21.65 41 23.3 41 25 C40.34 25 39.68 25 39 25 C39 23.02 39 21.04 39 19 C35.04 19.495 35.04 19.495 31 20 C31 20.66 31 21.32 31 22 C27.7991131 22.17782705 25.0477474 22.04069423 22 21 C19.45647341 18.2766281 17.70152876 15.3029676 16 12 C16.66 11.01 17.32 10.02 18 9 C18.433125 9.66 18.86625 10.32 19.3125 11 C19.869375 11.66 20.42625 12.32 21 13 C21.99 13 22.98 13 24 13 C24.66 13 25.32 13 26 13 C26.33 12.34 26.66 11.68 27 11 C28.32 11 29.64 11 31 11 C30.67 10.01 30.34 9.02 30 8 C30.66 8 31.32 8 32 8 C32 7.34 32 6.68 32 6 C28.46942825 5.08419624 28.46942825 5.08419624 24.9375 5.625 C24.298125 5.74875 23.65875 5.8725 23 6 C22.443125 5.484375 21.88625 4.96875 21.3125 4.4375 C18.49806851 2.68798854 17.67797147 2.94875101 14.5 3.5625 C10.64048713 4.57015607 8.58842148 5.89389422 6 9 C5.34 9 4.68 9 4 9 C4.1135629 10.64666203 4.24117381 12.29236082 4.375 13.9375 C4.44460937 14.85402344 4.51421875 15.77054688 4.5859375 16.71484375 C4.72257813 17.46894531 4.85921875 18.22304688 5 19 C5.66 19.33 6.32 19.66 7 20 C4.69 20 2.38 20 0 20 C0 13.4 0 6.8 0 0 Z " fill="#301E7A" transform="translate(0,0)"/>
<path d="M0 0 C0 1.98 0 3.96 0 6 C0.66 6 1.32 6 2 6 C2 4.35 2 2.7 2 1 C2.66 1 3.32 1 4 1 C4 1.99 4 2.98 4 4 C4.66 4 5.32 4 6 4 C5.67 4.66 5.34 5.32 5 6 C4.34 5.67 3.68 5.34 3 5 C0.91889738 11.0723683 0.91889738 11.0723683 1.98046875 17.1171875 C3.33525288 18.94175447 3.33525288 18.94175447 4.8359375 20.52734375 C6 22 6 22 6 25 C1.25 26.125 1.25 26.125 -1 25 C-0.67 23.68 -0.34 22.36 0 21 C0.66 21 1.32 21 2 21 C0.68 19.35 -0.64 17.7 -2 16 C-3.32 17.32 -4.64 18.64 -6 20 C-6.99 19.67 -7.98 19.34 -9 19 C-8.67 17.68 -8.34 16.36 -8 15 C-8.7734375 15.2475 -8.7734375 15.2475 -9.5625 15.5 C-12.84685626 16.1737141 -15.65428543 16.29872452 -19 16 C-22.37152289 13.53969951 -23.69519658 10.91441027 -25 7 C-23.35 7 -21.7 7 -20 7 C-19.67 5.35 -19.34 3.7 -19 2 C-17.54176788 1.9729957 -16.08339325 1.95360213 -14.625 1.9375 C-13.81289063 1.92589844 -13.00078125 1.91429687 -12.1640625 1.90234375 C-10 2 -10 2 -8 3 C-8 2.34 -8 1.68 -8 1 C-4.93251126 -0.86240388 -3.40254489 -1.2151946 0 0 Z " fill="#9461CE" transform="translate(39,19)"/>
<path d="M0 0 C0 9.24 0 18.48 0 28 C-5.28 28 -10.56 28 -16 28 C-18 22 -18 22 -17 19 C-16.34 19 -15.68 19 -15 19 C-14.9175 18.236875 -14.835 17.47375 -14.75 16.6875 C-13.85384206 13.47626739 -12.78388975 12.70625501 -10 11 C-7 14.75 -7 14.75 -7 17 C-7.66 17.33 -8.32 17.66 -9 18 C-8.67 19.32 -8.34 20.64 -8 22 C-6.35 21.67 -4.7 21.34 -3 21 C-3.34933594 20.39671875 -3.69867188 19.7934375 -4.05859375 19.171875 C-4.51363281 18.37265625 -4.96867187 17.5734375 -5.4375 16.75 C-5.88996094 15.96109375 -6.34242187 15.1721875 -6.80859375 14.359375 C-7.91974545 12.15893032 -8.67030612 10.43579807 -9 8 C-7.75 4.3125 -7.75 4.3125 -6 1 C-3 0 -3 0 0 0 Z " fill="#7831AD" transform="translate(48,23)"/>
<path d="M0 0 C2.88615785 2.49567767 4.16694736 5.18319454 5.75 8.625 C8.22173528 13.7361511 11.0541154 18.0000737 14.6796875 22.35546875 C16 24 16 24 16 25 C9.4 25 2.8 25 -4 25 C-4 18.4 -4 11.8 -4 5 C-2.68 5.33 -1.36 5.66 0 6 C0 4.02 0 2.04 0 0 Z " fill="#51327E" transform="translate(4,26)"/>
<path d="M0 0 C0.8971875 0.5878125 0.8971875 0.5878125 1.8125 1.1875 C4.18968717 2.00465809 5.37338417 2.31100133 7.8125 1.625 C10.43723206 1.05083986 11.56972562 1.82581556 13.8125 3.1875 C13.1525 4.8375 12.4925 6.4875 11.8125 8.1875 C10.4925 8.1875 9.1725 8.1875 7.8125 8.1875 C7.1525 9.5075 6.4925 10.8275 5.8125 12.1875 C5.1525 11.5275 4.4925 10.8675 3.8125 10.1875 C2.8225 10.1875 1.8325 10.1875 0.8125 10.1875 C0.1525 9.1975 -0.5075 8.2075 -1.1875 7.1875 C-2.1775 7.1875 -3.1675 7.1875 -4.1875 7.1875 C-4.8475 7.1875 -5.5075 7.1875 -6.1875 7.1875 C-6.8475 8.8375 -7.5075 10.4875 -8.1875 12.1875 C-7.1975 12.1875 -6.2075 12.1875 -5.1875 12.1875 C-4.8575 13.1775 -4.5275 14.1675 -4.1875 15.1875 C-9.1375 15.6825 -9.1375 15.6825 -14.1875 16.1875 C-15.3452506 12.71424819 -15.25616652 9.82682552 -15.1875 6.1875 C-14.5275 6.1875 -13.8675 6.1875 -13.1875 6.1875 C-12.8575 5.1975 -12.5275 4.2075 -12.1875 3.1875 C-8.50360937 0.73157291 -4.41659902 -1.64045106 0 0 Z " fill="#050B4E" transform="translate(19.1875,2.8125)"/>
<path d="M0 0 C8.91 0 17.82 0 27 0 C27 1.65 27 3.3 27 5 C25.25 5.6875 25.25 5.6875 23 6 C22.443125 5.484375 21.88625 4.96875 21.3125 4.4375 C18.49806851 2.68798854 17.67797147 2.94875101 14.5 3.5625 C10.64048713 4.57015607 8.58842148 5.89389422 6 9 C5.34 9 4.68 9 4 9 C4.1135629 10.64666203 4.24117381 12.29236082 4.375 13.9375 C4.44460937 14.85402344 4.51421875 15.77054688 4.5859375 16.71484375 C4.72257813 17.46894531 4.85921875 18.22304688 5 19 C5.66 19.33 6.32 19.66 7 20 C4.69 20 2.38 20 0 20 C0 13.4 0 6.8 0 0 Z " fill="#24155E" transform="translate(0,0)"/>
<path d="M0 0 C1.37562854 1.28965176 2.70766393 2.62689293 4 4 C4 4.66 4 5.32 4 6 C3.01 6.495 3.01 6.495 2 7 C2.33 8.32 2.66 9.64 3 11 C4.65 10.67 6.3 10.34 8 10 C6.125 15.875 6.125 15.875 5 17 C3.31391034 17.07205511 1.62499341 17.08386068 -0.0625 17.0625 C-0.98160156 17.05347656 -1.90070312 17.04445313 -2.84765625 17.03515625 C-3.55792969 17.02355469 -4.26820312 17.01195313 -5 17 C-7.125 11.375 -7.125 11.375 -6 8 C-5.34 8 -4.68 8 -4 8 C-3.896875 7.236875 -3.79375 6.47375 -3.6875 5.6875 C-2.95635961 2.82940576 -2.23048087 1.84257115 0 0 Z " fill="#9E3AA0" transform="translate(37,34)"/>
<path d="M0 0 C6.27 0 12.54 0 19 0 C19 4.95 19 9.9 19 15 C17.35 15 15.7 15 14 15 C14 12.36 14 9.72 14 7 C13.236875 6.896875 12.47375 6.79375 11.6875 6.6875 C9 6 9 6 7.5625 4.4375 C5.96161036 2.66047134 5.96161036 2.66047134 2.8125 2.8125 C1.884375 2.874375 0.95625 2.93625 0 3 C0 2.01 0 1.02 0 0 Z " fill="#9679A0" transform="translate(29,0)"/>
<path d="M0 0 C0 0.99 0 1.98 0 3 C-0.66 3 -1.32 3 -2 3 C-1.67 5.97 -1.34 8.94 -1 12 C-8.41988304 12.48654971 -8.41988304 12.48654971 -10.9375 10.375 C-12.18403504 7.58862755 -12.65629723 5.02458441 -13 2 C-11.01432292 2.06510417 -9.02864583 2.13020833 -7.04296875 2.1953125 C-4.1877684 1.9223488 -2.88406488 0 0 0 Z " fill="#5F4884" transform="translate(33,39)"/>
<path d="M0 0 C0.8971875 0.99 0.8971875 0.99 1.8125 2 C3.87501834 4.3373846 3.87501834 4.3373846 7 4 C10.36081693 4.51704876 13.02638833 5.34799352 16 7 C15.01 7.66 14.02 8.32 13 9 C14.32 9.66 15.64 10.32 17 11 C16.01 11 15.02 11 14 11 C14 11.66 14 12.32 14 13 C10.8001073 13.17777182 8.05101262 13.02525911 5 12 C2.33854885 9.3438295 0.40838579 6.49034738 -1 3 C-0.67 2.01 -0.34 1.02 0 0 Z " fill="#291E7D" transform="translate(17,9)"/>
<path d="M0 0 C0.86625 0.4640625 0.86625 0.4640625 1.75 0.9375 C5.74030501 2.82931469 5.74030501 2.82931469 10 2.4375 C12.62473206 1.86333986 13.75722562 2.63831556 16 4 C15.34 5.65 14.68 7.3 14 9 C12.68 9 11.36 9 10 9 C9.34 10.32 8.68 11.64 8 13 C7.34 12.34 6.68 11.68 6 11 C5.01 11 4.02 11 3 11 C2.34 9.68 1.68 8.36 1 7 C1.99 6.34 2.98 5.68 4 5 C1.525 4.01 1.525 4.01 -1 3 C-0.67 2.01 -0.34 1.02 0 0 Z " fill="#191474" transform="translate(17,2)"/>
<path d="M0 0 C3 0 3 0 5.375 2.0625 C13 10.5952381 13 10.5952381 13 13 C9.37 13 5.74 13 2 13 C1.34 11.68 0.68 10.36 0 9 C-0.66 8.34 -1.32 7.68 -2 7 C-0.68 7 0.64 7 2 7 C1.67 6.401875 1.34 5.80375 1 5.1875 C0 3 0 3 0 0 Z " fill="#5F5FC1" transform="translate(7,38)"/>
<path d="M0 0 C2.0625 0.4375 2.0625 0.4375 4 1 C4.125 8.75 4.125 8.75 3 11 C1.845 10.938125 0.69 10.87625 -0.5 10.8125 C-5.21213121 10.78725644 -8.69559472 12.15525488 -13 14 C-13.99 13.01 -14.98 12.02 -16 11 C-14.22555028 8.75393573 -13.41647515 8.04918998 -10.51953125 7.70703125 C-9.17955078 7.75923828 -9.17955078 7.75923828 -7.8125 7.8125 C-6.46091797 7.85310547 -6.46091797 7.85310547 -5.08203125 7.89453125 C-4.39496094 7.92933594 -3.70789062 7.96414062 -3 8 C-3 7.34 -3 6.68 -3 6 C-2.01 6 -1.02 6 0 6 C-0.2784375 4.7934375 -0.2784375 4.7934375 -0.5625 3.5625 C-0.706875 2.716875 -0.85125 1.87125 -1 1 C-0.67 0.67 -0.34 0.34 0 0 Z " fill="#AA6EDD" transform="translate(35,18)"/>
<path d="M0 0 C1.70840281 1.63412443 2.93453047 2.86906094 4 5 C4.66 4.67 5.32 4.34 6 4 C6 4.66 6 5.32 6 6 C6.66 6 7.32 6 8 6 C8.33 5.34 8.66 4.68 9 4 C9.66 5.32 10.32 6.64 11 8 C10.34 8 9.68 8 9 8 C10.32 11.3 11.64 14.6 13 18 C6.94329416 16.78865883 5.94506583 15.23190581 2.44921875 10.5 C0.35654438 6.88999569 0.07525582 4.13907024 0 0 Z " fill="#45247C" transform="translate(11,33)"/>
<path d="M0 0 C2.97 0 5.94 0 9 0 C10.25 7.625 10.25 7.625 8 11 C7.01 9.35 6.02 7.7 5 6 C4.67 7.65 4.34 9.3 4 11 C2.68 10.67 1.36 10.34 0 10 C0 6.7 0 3.4 0 0 Z " fill="#191662" transform="translate(0,21)"/>
<path d="M0 0 C2.64 0.33 5.28 0.66 8 1 C8.25 8.625 8.25 8.625 6 12 C6 11.01 6 10.02 6 9 C5.01 9 4.02 9 3 9 C3 8.01 3 7.02 3 6 C2.34 6 1.68 6 1 6 C1 7.65 1 9.3 1 11 C0.34 11 -0.32 11 -1 11 C-1 9.02 -1 7.04 -1 5 C-1.66 4.67 -2.32 4.34 -3 4 C-3 3.34 -3 2.68 -3 2 C-2.01 2 -1.02 2 0 2 C0 1.34 0 0.68 0 0 Z " fill="#752C98" transform="translate(40,14)"/>
<path d="M0 0 C0.99 0.495 0.99 0.495 2 1 C2 1.66 2 2.32 2 3 C2.99 3 3.98 3 5 3 C5 4.65 5 6.3 5 8 C4.01 7.67 3.02 7.34 2 7 C2.33 7.66 2.66 8.32 3 9 C3.99 9 4.98 9 6 9 C6.33 9.99 6.66 10.98 7 12 C6.01 12.495 6.01 12.495 5 13 C4.27840576 14.64363134 3.60648579 16.31050386 3 18 C2.34 18 1.68 18 1 18 C0.67 18.66 0.34 19.32 0 20 C0 13.4 0 6.8 0 0 Z " fill="#812689" transform="translate(0,31)"/>
<path d="M0 0 C0 1.65 0 3.3 0 5 C-1.75 5.6875 -1.75 5.6875 -4 6 C-4.5775 5.4946875 -5.155 4.989375 -5.75 4.46875 C-8.89219815 2.41759288 -10.64071183 3.06710353 -14.25 3.8125 C-15.32765625 4.02519531 -16.4053125 4.23789063 -17.515625 4.45703125 C-18.33546875 4.63621094 -19.1553125 4.81539063 -20 5 C-20 4.34 -20 3.68 -20 3 C-13.45841601 -0.65111665 -7.36120371 -0.29887594 0 0 Z " fill="#294593" transform="translate(27,0)"/>
<path d="M0 0 C-0.57584432 2.38564077 -1.22227595 4.66682784 -2 7 C-4.6875 7.8125 -4.6875 7.8125 -8 8 C-10.875 5.6875 -10.875 5.6875 -13 3 C-13 2.34 -13 1.68 -13 1 C-11.20994059 0.63779734 -9.41787943 0.28547531 -7.625 -0.0625 C-6.12839844 -0.35833984 -6.12839844 -0.35833984 -4.6015625 -0.66015625 C-2 -1 -2 -1 0 0 Z " fill="#7A63C4" transform="translate(32,34)"/>
<path d="M0 0 C1.65 0 3.3 0 5 0 C4.67 1.65 4.34 3.3 4 5 C3.01 4.67 2.02 4.34 1 4 C1 4.66 1 5.32 1 6 C-1.98879276 6.85394079 -3.71763271 7.07700926 -6.75 6.25 C-9 5 -9 5 -10 2 C-6.42355152 0.7619986 -3.66305234 1.25073929 0 2 C0 1.34 0 0.68 0 0 Z " fill="#8251C7" transform="translate(31,20)"/>
<path d="M0 0 C0.66 0 1.32 0 2 0 C2 0.99 2 1.98 2 3 C2.9075 2.7525 3.815 2.505 4.75 2.25 C8 2 8 2 10.4375 3.6875 C12 6 12 6 11.75 8.25 C11.5025 8.8275 11.255 9.405 11 10 C9.02 10 7.04 10 5 10 C5 8.68 5 7.36 5 6 C2.525 5.01 2.525 5.01 0 4 C0 2.68 0 1.36 0 0 Z " fill="#33235D" transform="translate(27,0)"/>
<path d="M0 0 C5.27293578 6.95068807 5.27293578 6.95068807 5 12 C4.01 12.33 3.02 12.66 2 13 C1.34 12.34 0.68 11.68 0 11 C0 9.68 0 8.36 0 7 C-0.99 7 -1.98 7 -3 7 C-1.125 1.125 -1.125 1.125 0 0 Z " fill="#44318A" transform="translate(14,8)"/>
<path d="M0 0 C1 2 1 2 1.3125 3.75 C1.96078895 6.26328222 1.96078895 6.26328222 4.0625 9.0625 C6 12 6 12 6 15 C1.25 16.125 1.25 16.125 -1 15 C-0.67 13.68 -0.34 12.36 0 11 C0.66 11 1.32 11 2 11 C0.68 9.35 -0.64 7.7 -2 6 C-2.99 6.495 -2.99 6.495 -4 7 C-2.79618552 4.50638429 -1.54571278 2.31856917 0 0 Z " fill="#E695F6" transform="translate(39,29)"/>
<path d="M0 0 C0 0.99 0 1.98 0 3 C-0.66 3 -1.32 3 -2 3 C-1.67 5.97 -1.34 8.94 -1 12 C-2.65 12 -4.3 12 -6 12 C-7.21621622 6.64864865 -7.21621622 6.64864865 -6.25 3.75 C-4.54810544 1.36734762 -3.01155524 0 0 0 Z " fill="#7D4186" transform="translate(33,39)"/>
<path d="M0 0 C0 0.66 0 1.32 0 2 C0.99 2.66 1.98 3.32 3 4 C-2.75 5 -2.75 5 -5 5 C-5.99 5.33 -6.98 5.66 -8 6 C-8 5.34 -8 4.68 -8 4 C-10.64 3.67 -13.28 3.34 -16 3 C-16 2.67 -16 2.34 -16 2 C-10.54538831 0.61470179 -5.63281599 -0.2396943 0 0 Z " fill="#252E6F" transform="translate(16,18)"/>
<path d="M0 0 C3.86695678 0 6.5088452 1.41909971 10 3 C9.01 3.66 8.02 4.32 7 5 C8.32 5.66 9.64 6.32 11 7 C10.01 7 9.02 7 8 7 C8 7.66 8 8.32 8 9 C5.125 8.4375 5.125 8.4375 2 7 C0.625 3.375 0.625 3.375 0 0 Z " fill="#3F2D81" transform="translate(23,13)"/>
<path d="M0 0 C0.99 0 1.98 0 3 0 C3 0.66 3 1.32 3 2 C2.34 2 1.68 2 1 2 C1.66 3.65 2.32 5.3 3 7 C3.99 7 4.98 7 6 7 C6.33 7.99 6.66 8.98 7 10 C3.7 10.33 0.4 10.66 -3 11 C-3 9.68 -3 8.36 -3 7 C-2.34 6.67 -1.68 6.34 -1 6 C-0.34227572 2.97065509 -0.34227572 2.97065509 0 0 Z " fill="#261056" transform="translate(8,8)"/>
<path d="M0 0 C0.33 0.66 0.66 1.32 1 2 C2.65 1.67 4.3 1.34 6 1 C4.125 6.875 4.125 6.875 3 8 C0.66702567 8.04092937 -1.66705225 8.04241723 -4 8 C-2.68 5.36 -1.36 2.72 0 0 Z " fill="#AC4BD8" transform="translate(39,43)"/>
<path d="M0 0 C1.65 0 3.3 0 5 0 C5 2.97 5 5.94 5 9 C3.35 9 1.7 9 0 9 C0 6.03 0 3.06 0 0 Z " fill="#7771E5" transform="translate(43,6)"/>
<path d="M0 0 C2 1 2 1 3 3 C5.01669827 4.13350534 5.01669827 4.13350534 7 5 C6.01 5.33 5.02 5.66 4 6 C2.65909241 6.65129797 1.32407669 7.31513275 0 8 C0 8.66 0 9.32 0 10 C-1.32 10 -2.64 10 -4 10 C-4.66 8.35 -5.32 6.7 -6 5 C-4.35 5 -2.7 5 -1 5 C-0.67 3.35 -0.34 1.7 0 0 Z " fill="#A174D9" transform="translate(20,21)"/>
<path d="M0 0 C1.65 0 3.3 0 5 0 C5 0.66 5 1.32 5 2 C5.66 2 6.32 2 7 2 C7 1.34 7 0.68 7 0 C8.65 0.33 10.3 0.66 12 1 C12 1.99 12 2.98 12 4 C10.56589632 4.24954005 9.12739928 4.47392642 7.6875 4.6875 C6.88699219 4.81511719 6.08648437 4.94273437 5.26171875 5.07421875 C3 5 3 5 1.20703125 3.64453125 C0 2 0 2 0 0 Z " fill="#9C74C3" transform="translate(36,2)"/>
<path d="M0 0 C1.43861294 0.08746284 2.87597508 0.19565348 4.3125 0.3125 C5.11300781 0.37050781 5.91351563 0.42851563 6.73828125 0.48828125 C9.36272334 1.08206694 10.30820672 1.95780294 12 4 C11.195625 4.12375 10.39125 4.2475 9.5625 4.375 C8.2940625 4.684375 8.2940625 4.684375 7 5 C6.67 5.66 6.34 6.32 6 7 C5.34 6.01 4.68 5.02 4 4 C1.94074861 3.27617533 1.94074861 3.27617533 0 3 C0 2.01 0 1.02 0 0 Z " fill="#0B0F65" transform="translate(10,4)"/>
<path d="M0 0 C0.99 0 1.98 0 3 0 C3.185625 1.2065625 3.185625 1.2065625 3.375 2.4375 C3.58125 3.283125 3.7875 4.12875 4 5 C4.66 5.33 5.32 5.66 6 6 C4.6875 8 4.6875 8 3 10 C2.01 10 1.02 10 0 10 C0 6.7 0 3.4 0 0 Z " fill="#698DC0" transform="translate(0,0)"/>
<path d="M0 0 C2 2 2 2 2.23046875 3.875 C2.21628906 4.57625 2.20210937 5.2775 2.1875 6 C2.18105469 6.70125 2.17460938 7.4025 2.16796875 8.125 C2 10 2 10 1 12 C0.34 12 -0.32 12 -1 12 C-3.125 6.375 -3.125 6.375 -2 3 C-1.34 3 -0.68 3 0 3 C0 2.01 0 1.02 0 0 Z " fill="#9E4586" transform="translate(33,39)"/>
<path d="M0 0 C3.63 0 7.26 0 11 0 C10.67 0.66 10.34 1.32 10 2 C6.9375 2.625 6.9375 2.625 4 3 C4 3.66 4 4.32 4 5 C4.66 5.33 5.32 5.66 6 6 C4.35 5.67 2.7 5.34 1 5 C0.67 3.35 0.34 1.7 0 0 Z " fill="#20418A" transform="translate(3,0)"/>
<path d="M0 0 C1.093125 0.226875 2.18625 0.45375 3.3125 0.6875 C2.9825 1.6775 2.6525 2.6675 2.3125 3.6875 C-0.75 4.875 -0.75 4.875 -3.6875 5.6875 C-4.6775 4.6975 -5.6675 3.7075 -6.6875 2.6875 C-4.58035839 -0.41123767 -3.86755884 -0.32775922 0 0 Z " fill="#F2DDF3" transform="translate(25.6875,26.3125)"/>
<path d="M0 0 C0.99 0 1.98 0 3 0 C3.25 7.625 3.25 7.625 1 11 C0.01 8.03 -0.98 5.06 -2 2 C-1.34 1.34 -0.68 0.68 0 0 Z " fill="#391888" transform="translate(45,15)"/>
<path d="M0 0 C3.76024616 2.50683077 4.39192086 4.86493934 6 9 C2.84859577 8.65930765 1.39218439 8.41923159 -0.8125 6.0625 C-2 4 -2 4 -2 2 C-1.34 2 -0.68 2 0 2 C0 1.34 0 0.68 0 0 Z " fill="#291885" transform="translate(18,42)"/>
<path d="M0 0 C0.99 0.495 0.99 0.495 2 1 C2 1.66 2 2.32 2 3 C3.32 2.67 4.64 2.34 6 2 C6.33 4.31 6.66 6.62 7 9 C5.1875 8.8125 5.1875 8.8125 3 8 C0.85802506 5.09303401 0 3.64478912 0 0 Z " fill="#A43CCD" transform="translate(39,31)"/>
<path d="M0 0 C0.99 0.495 0.99 0.495 2 1 C2 1.66 2 2.32 2 3 C2.99 3 3.98 3 5 3 C5 4.65 5 6.3 5 8 C4.01 7.67 3.02 7.34 2 7 C2 7.99 2 8.98 2 10 C1.34 10 0.68 10 0 10 C0 6.7 0 3.4 0 0 Z " fill="#6D248D" transform="translate(0,31)"/>
<path d="M0 0 C3 0 3 0 5.6875 2.3125 C8 5 8 5 8 8 C4.5625 6.8125 4.5625 6.8125 1 5 C0.0625 2.3125 0.0625 2.3125 0 0 Z " fill="#6C5B90" transform="translate(7,38)"/>
<path d="M0 0 C1.65 0 3.3 0 5 0 C4.01 0.495 4.01 0.495 3 1 C3 1.66 3 2.32 3 3 C3.99 3.33 4.98 3.66 6 4 C5 5 5 5 3.15234375 5.09765625 C1.1015625 5.06510417 -0.94921875 5.03255208 -3 5 C-3 4.34 -3 3.68 -3 3 C-2.34 3 -1.68 3 -1 3 C-0.67 2.01 -0.34 1.02 0 0 Z " fill="#5B258A" transform="translate(4,46)"/>
<path d="M0 0 C-5.14285714 4.42857143 -5.14285714 4.42857143 -9 5 C-9.33 4.01 -9.66 3.02 -10 2 C-10.66 1.67 -11.32 1.34 -12 1 C-10.37681021 0.63762737 -8.7513642 0.28534843 -7.125 -0.0625 C-6.22007813 -0.25972656 -5.31515625 -0.45695312 -4.3828125 -0.66015625 C-2 -1 -2 -1 0 0 Z " fill="#603F9A" transform="translate(32,34)"/>
<path d="M0 0 C3.3 0 6.6 0 10 0 C10 1.33333333 10 2.66666667 10 4 C6.6875 4.25 6.6875 4.25 3 4 C2.01 2.68 1.02 1.36 0 0 Z " fill="#7D63BD" transform="translate(17,31)"/>
<path d="M0 0 C2.43929746 1.92576115 4.80090595 3.80090595 7 6 C2.545 6.495 2.545 6.495 -2 7 C-1.01 6.01 -0.02 5.02 1 4 C-1.475 3.01 -1.475 3.01 -4 2 C-2.68 1.34 -1.36 0.68 0 0 Z " fill="#241462" transform="translate(31,12)"/>
<path d="M0 0 C1.37562854 1.28965176 2.70766393 2.62689293 4 4 C4 4.66 4 5.32 4 6 C2.35 6.66 0.7 7.32 -1 8 C-1.625 5.125 -1.625 5.125 -2 2 C-1.34 1.34 -0.68 0.68 0 0 Z " fill="#AC3BC8" transform="translate(37,34)"/>
<path d="M0 0 C2.81340521 2.81340521 2.669115 5.09555696 3 9 C2.5625 11.9375 2.5625 11.9375 2 14 C0.68 14.33 -0.64 14.66 -2 15 C-2 14.01 -2 13.02 -2 12 C-1.34 12 -0.68 12 0 12 C0.33 10.68 0.66 9.36 1 8 C0.01 8 -0.98 8 -2 8 C-2 7.34 -2 6.68 -2 6 C-1.34 6 -0.68 6 0 6 C0 4.02 0 2.04 0 0 Z " fill="#502886" transform="translate(4,26)"/>
<path d="M0 0 C2.475 0.495 2.475 0.495 5 1 C5.625 3.3125 5.625 3.3125 6 6 C5.01 7.485 5.01 7.485 4 9 C0 2.25 0 2.25 0 0 Z " fill="#0C0A59" transform="translate(4,23)"/>
<path d="M0 0 C0.99 1.32 1.98 2.64 3 4 C2.34 4 1.68 4 1 4 C0.67 5.65 0.34 7.3 0 9 C-1.65 9 -3.3 9 -5 9 C-5 8.01 -5 7.02 -5 6 C-4.360625 5.7525 -3.72125 5.505 -3.0625 5.25 C-0.81258459 4.18437567 -0.81258459 4.18437567 -0.25 1.875 C-0.1675 1.25625 -0.085 0.6375 0 0 Z " fill="#644BB1" transform="translate(19,17)"/>
<path d="M0 0 C1.134375 0.020625 2.26875 0.04125 3.4375 0.0625 C3.4375 1.0525 3.4375 2.0425 3.4375 3.0625 C2.4375 4.0625 2.4375 4.0625 -0.625 4.125 C-1.594375 4.104375 -2.56375 4.08375 -3.5625 4.0625 C-3.8925 3.0725 -4.2225 2.0825 -4.5625 1.0625 C-3.5625 0.0625 -3.5625 0.0625 0 0 Z " fill="#7462C6" transform="translate(25.5625,20.9375)"/>
<path d="M0 0 C2 2 2 2 2.125 4.625 C2.08375 5.40875 2.0425 6.1925 2 7 C0.35 7 -1.3 7 -3 7 C-1.125 1.125 -1.125 1.125 0 0 Z " fill="#7D7FB8" transform="translate(14,8)"/>
<path d="M0 0 C2.97 0 5.94 0 9 0 C8.01 1.485 8.01 1.485 7 3 C5.68 2.67 4.36 2.34 3 2 C3 2.99 3 3.98 3 5 C2.34 5 1.68 5 1 5 C0.67 3.35 0.34 1.7 0 0 Z " fill="#061B5F" transform="translate(0,21)"/>
<path d="M0 0 C0.66 0.33 1.32 0.66 2 1 C1.67 1.66 1.34 2.32 1 3 C0.34 3 -0.32 3 -1 3 C-1 4.32 -1 5.64 -1 7 C-1.66 7 -2.32 7 -3 7 C-3.66 8.32 -4.32 9.64 -5 11 C-5 8.69 -5 6.38 -5 4 C-4.01 4 -3.02 4 -2 4 C-1.34 2.68 -0.68 1.36 0 0 Z " fill="#16196A" transform="translate(5,6)"/>
<path d="M0 0 C2 1 2 1 3 3 C5.01669827 4.13350534 5.01669827 4.13350534 7 5 C3.71023192 6.09658936 2.28696233 5.79953138 -1 5 C-0.67 3.35 -0.34 1.7 0 0 Z " fill="#8E75CF" transform="translate(20,21)"/>
<path d="M0 0 C0.33 0 0.66 0 1 0 C1 2.97 1 5.94 1 9 C-0.32 8.67 -1.64 8.34 -3 8 C-2.01 5.36 -1.02 2.72 0 0 Z " fill="#C02CB9" transform="translate(47,42)"/>
<path d="M0 0 C2.0625 0.4375 2.0625 0.4375 4 1 C3.67 2.65 3.34 4.3 3 6 C2.01 6 1.02 6 0 6 C-0.38218767 4.34385343 -0.71395102 2.67542976 -1 1 C-0.67 0.67 -0.34 0.34 0 0 Z " fill="#AB76E7" transform="translate(35,18)"/>
<path d="M0 0 C0.99 0.33 1.98 0.66 3 1 C3 2.32 3 3.64 3 5 C0.125 5.625 0.125 5.625 -3 6 C-3.66 5.34 -4.32 4.68 -5 4 C-3.35 4 -1.7 4 0 4 C-0.33 3.01 -0.66 2.02 -1 1 C-0.67 0.67 -0.34 0.34 0 0 Z " fill="#180F67" transform="translate(39,7)"/>
<path d="M0 0 C0.99 0.66 1.98 1.32 3 2 C2.67 3.32 2.34 4.64 2 6 C0.68 6 -0.64 6 -2 6 C-2 4.68 -2 3.36 -2 2 C-1.34 2 -0.68 2 0 2 C0 1.34 0 0.68 0 0 Z " fill="#654969" transform="translate(36,4)"/>
<path d="M0 0 C5.875 3.625 5.875 3.625 7 7 C5.68 7 4.36 7 3 7 C0 2.92857143 0 2.92857143 0 0 Z " fill="#4A45B7" transform="translate(13,44)"/>
<path d="M0 0 C1.98 0.99 3.96 1.98 6 3 C5.67 4.32 5.34 5.64 5 7 C3.68 6.67 2.36 6.34 1 6 C0.67 4.02 0.34 2.04 0 0 Z " fill="#5A439C" transform="translate(23,13)"/>
<path d="M0 0 C0.99 0 1.98 0 3 0 C3 0.66 3 1.32 3 2 C2.34 2 1.68 2 1 2 C1.99 3.485 1.99 3.485 3 5 C3 5.99 3 6.98 3 8 C1.35 8 -0.3 8 -2 8 C-1.34 5.36 -0.68 2.72 0 0 Z " fill="#1B2268" transform="translate(8,8)"/>
<path d="M0 0 C2.32947183 2.11770166 3.88750845 4.03335588 5 7 C4.67 7.99 4.34 8.98 4 10 C0 4.5 0 4.5 0 0 Z " fill="#504CA4" transform="translate(5,28)"/>
<path d="M0 0 C1.15392455 2.3078491 1.53437166 4.47230331 2 7 C0 7 -2 7 -4 7 C-2.79618552 4.50638429 -1.54571278 2.31856917 0 0 Z " fill="#C969EA" transform="translate(39,29)"/>
<path d="M0 0 C1.65 0 3.3 0 5 0 C4.67 1.32 4.34 2.64 4 4 C3.01 4 2.02 4 1 4 C0.67 2.68 0.34 1.36 0 0 Z " fill="#6462D4" transform="translate(43,6)"/>
<path d="M0 0 C2.475 0.495 2.475 0.495 5 1 C5.33 2.32 5.66 3.64 6 5 C4.35 4.67 2.7 4.34 1 4 C0.67 2.68 0.34 1.36 0 0 Z " fill="#5C6BD6" transform="translate(10,46)"/>
<path d="M0 0 C2 2 2 2 2.125 5.625 C2.08375 6.73875 2.0425 7.8525 2 9 C1.67 8.01 1.34 7.02 1 6 C0.34 6 -0.32 6 -1 6 C-1.33 5.01 -1.66 4.02 -2 3 C-1.34 3 -0.68 3 0 3 C0 2.01 0 1.02 0 0 Z " fill="#B54792" transform="translate(33,39)"/>
<path d="M0 0 C0.66 0 1.32 0 2 0 C2 1.65 2 3.3 2 5 C0.68 5.33 -0.64 5.66 -2 6 C-2.33 5.34 -2.66 4.68 -3 4 C-2.34 4 -1.68 4 -1 4 C-0.67 2.68 -0.34 1.36 0 0 Z " fill="#302A8D" transform="translate(25,0)"/>
<path d="M0 0 C2.64 0 5.28 0 8 0 C7.67 0.66 7.34 1.32 7 2 C2.52459016 3.26229508 2.52459016 3.26229508 0 2 C0 1.34 0 0.68 0 0 Z " fill="#151C66" transform="translate(6,0)"/>
</svg>
