<svg width="100" height="100" viewBox="0 0 100 100" fill="none" xmlns="http://www.w3.org/2000/svg">
<rect x="0.5" y="0.5" width="99" height="99" rx="8.5" fill="white"/>
<rect x="0.5" y="0.5" width="99" height="99" rx="8.5" stroke="#C3C3C3"/>
<path d="M37.1667 48.1665L39.9167 39.9165H60.0833L62.8333 48.1665M60.0833 57.3332C59.354 57.3332 58.6545 57.0434 58.1388 56.5277C57.6231 56.012 57.3333 55.3125 57.3333 54.5832C57.3333 53.8538 57.6231 53.1544 58.1388 52.6386C58.6545 52.1229 59.354 51.8332 60.0833 51.8332C60.8127 51.8332 61.5122 52.1229 62.0279 52.6386C62.5436 53.1544 62.8333 53.8538 62.8333 54.5832C62.8333 55.3125 62.5436 56.012 62.0279 56.5277C61.5122 57.0434 60.8127 57.3332 60.0833 57.3332ZM39.9167 57.3332C39.1873 57.3332 38.4878 57.0434 37.9721 56.5277C37.4564 56.012 37.1667 55.3125 37.1667 54.5832C37.1667 53.8538 37.4564 53.1544 37.9721 52.6386C38.4878 52.1229 39.1873 51.8332 39.9167 51.8332C40.646 51.8332 41.3455 52.1229 41.8612 52.6386C42.3769 53.1544 42.6667 53.8538 42.6667 54.5832C42.6667 55.3125 42.3769 56.012 41.8612 56.5277C41.3455 57.0434 40.646 57.3332 39.9167 57.3332ZM62.6867 38.9998C62.32 37.9365 61.2933 37.1665 60.0833 37.1665H39.9167C38.7067 37.1665 37.68 37.9365 37.3133 38.9998L33.5 49.9998V64.6665C33.5 65.1527 33.6932 65.6191 34.037 65.9629C34.3808 66.3067 34.8471 66.4998 35.3333 66.4998H37.1667C37.6529 66.4998 38.1192 66.3067 38.463 65.9629C38.8068 65.6191 39 65.1527 39 64.6665V62.8332H61V64.6665C61 65.1527 61.1932 65.6191 61.537 65.9629C61.8808 66.3067 62.3471 66.4998 62.8333 66.4998H64.6667C65.1529 66.4998 65.6192 66.3067 65.963 65.9629C66.3068 65.6191 66.5 65.1527 66.5 64.6665V49.9998L62.6867 38.9998Z" fill="#B4B4B4"/>
</svg>
