<?xml version="1.0" encoding="UTF-8"?>
<svg version="1.1" xmlns="http://www.w3.org/2000/svg" width="48" height="48">
<path d="M0 0 C15.84 0 31.68 0 48 0 C48 15.84 48 31.68 48 48 C32.16 48 16.32 48 0 48 C0 32.16 0 16.32 0 0 Z " fill="#B1118B" transform="translate(0,0)"/>
<path d="M0 0 C0.33 0 0.66 0 1 0 C1.03867187 0.90492187 1.03867187 0.90492187 1.078125 1.828125 C1.35889045 7.05271335 1.35889045 7.05271335 4.0625 11.375 C4.701875 11.91125 5.34125 12.4475 6 13 C6 13.99 6 14.98 6 16 C6.99 16 7.98 16 9 16 C9 16.99 9 17.98 9 19 C9.66 19 10.32 19 11 19 C11.33 18.34 11.66 17.68 12 17 C12.33 18.65 12.66 20.3 13 22 C13.99 21.67 14.98 21.34 16 21 C14.9295699 24.10424729 14.11856434 24.93413092 11.1875 26.5625 C10.135625 27.036875 9.08375 27.51125 8 28 C7.0925 28.556875 6.185 29.11375 5.25 29.6875 C3 31 3 31 1 31 C1 31.66 1 32.32 1 33 C1.73605469 32.94199219 2.47210938 32.88398437 3.23046875 32.82421875 C11.25570477 32.45317085 11.25570477 32.45317085 15.0625 35.25 C19 40.83870968 19 40.83870968 19 45 C10.75 45 2.5 45 -6 45 C-6 42.03 -6 39.06 -6 36 C-3.525 35.505 -3.525 35.505 -1 35 C-1 34.01 -1 33.02 -1 32 C-2.98 32 -4.96 32 -7 32 C-9.07489819 26.98566272 -10.23281272 23.47109891 -10 18 C-10.30649316 15.66298962 -10.63473747 13.32854865 -11 11 C-11 10.67 -11 10.34 -11 10 C-8.625 9.875 -8.625 9.875 -6 10 C-5.34 10.66 -4.68 11.32 -4 12 C-3.01 12.33 -2.02 12.66 -1 13 C-1.61875 12.38125 -2.2375 11.7625 -2.875 11.125 C-4.25 9.75 -5.625 8.375 -7 7 C-6.21625 6.401875 -5.4325 5.80375 -4.625 5.1875 C-1.85425677 3.08914751 -1.85425677 3.08914751 0 0 Z " fill="#F6A0C6" transform="translate(24,3)"/>
<path d="M0 0 C0.66 0.33 1.32 0.66 2 1 C1.9175 1.886875 1.835 2.77375 1.75 3.6875 C2.05208163 7.69008159 3.29727467 9.12835434 6 12 C6.33 8.04 6.66 4.08 7 0 C7.66 0 8.32 0 9 0 C10.90601617 6.30543716 12.34023623 12.32346476 12.7890625 18.90625 C12.9419216 21.191665 12.9419216 21.191665 14 24 C15.98 24.33 17.96 24.66 20 25 C20 25.99 20 26.98 20 28 C18.35 28.33 16.7 28.66 15 29 C15 31.97 15 34.94 15 38 C9.06 38 3.12 38 -3 38 C-3 26.12 -3 14.24 -3 2 C-2.01 2 -1.02 2 0 2 C0 1.34 0 0.68 0 0 Z " fill="#8C1357" transform="translate(3,10)"/>
<path d="M0 0 C0.66 0 1.32 0 2 0 C2 15.84 2 31.68 2 48 C0.35 48 -1.3 48 -3 48 C-3.25394531 47.37351563 -3.50789063 46.74703125 -3.76953125 46.1015625 C-4.11371094 45.28429688 -4.45789063 44.46703125 -4.8125 43.625 C-5.14894531 42.81289063 -5.48539063 42.00078125 -5.83203125 41.1640625 C-6.94439082 38.69852542 -6.94439082 38.69852542 -10 37 C-12.73872955 36.54227937 -12.73872955 36.54227937 -15.6875 36.375 C-16.68136719 36.30023438 -17.67523437 36.22546875 -18.69921875 36.1484375 C-19.45847656 36.09945312 -20.21773437 36.05046875 -21 36 C-21 35.34 -21 34.68 -21 34 C-19.82630859 33.36771484 -19.82630859 33.36771484 -18.62890625 32.72265625 C-17.61699219 32.17480469 -16.60507812 31.62695312 -15.5625 31.0625 C-14.55316406 30.51722656 -13.54382812 29.97195312 -12.50390625 29.41015625 C-10.13329507 28.22300532 -10.13329507 28.22300532 -9 27 C-9.66 26.67 -10.32 26.34 -11 26 C-11 24.68 -11 23.36 -11 22 C-11.66 22 -12.32 22 -13 22 C-13 21.01 -13 20.02 -13 19 C-13.99 19 -14.98 19 -16 19 C-15.814375 18.38125 -15.62875 17.7625 -15.4375 17.125 C-14.76313824 14.95839822 -14.76313824 14.95839822 -16 13 C-16.16796875 11.125 -16.16796875 11.125 -16.1875 9 C-16.20167969 8.29875 -16.21585938 7.5975 -16.23046875 6.875 C-16 5 -16 5 -14 3 C-12 4 -12 4 -10.6875 7.4375 C-9.36187356 11.14919562 -9.36187356 11.14919562 -6.3125 12.4375 C-5.549375 12.623125 -4.78625 12.80875 -4 13 C-3.67 11.35 -3.34 9.7 -3 8 C-2.01 8 -1.02 8 0 8 C0 5.36 0 2.72 0 0 Z " fill="#700249" transform="translate(46,0)"/>
<path d="M0 0 C0.99 0 1.98 0 3 0 C3 0.66 3 1.32 3 2 C4.10408203 1.91298828 4.10408203 1.91298828 5.23046875 1.82421875 C13.25570477 1.45317085 13.25570477 1.45317085 17.0625 4.25 C21 9.83870968 21 9.83870968 21 14 C12.75 14 4.5 14 -4 14 C-4 11.03 -4 8.06 -4 5 C-2.35 4.67 -0.7 4.34 1 4 C0.67 2.68 0.34 1.36 0 0 Z " fill="#F3A3C0" transform="translate(22,34)"/>
<path d="M0 0 C0.66 0 1.32 0 2 0 C6.78026009 10.79826609 6.78026009 10.79826609 6 16 C4 18 4 18 1.1796875 18.1953125 C-1.88020833 18.13020833 -4.94010417 18.06510417 -8 18 C-8 13.05 -8 8.1 -8 3 C-5.03 3.495 -5.03 3.495 -2 4 C-1.34 2.68 -0.68 1.36 0 0 Z " fill="#DE73A2" transform="translate(8,30)"/>
<path d="M0 0 C0.33 0 0.66 0 1 0 C1.19335938 1.0621875 1.38671875 2.124375 1.5859375 3.21875 C3.7371524 15.24237084 3.7371524 15.24237084 7 27 C5.35 27 3.7 27 2 27 C1.74605469 26.37351562 1.49210937 25.74703125 1.23046875 25.1015625 C0.88628906 24.28429687 0.54210937 23.46703125 0.1875 22.625 C-0.14894531 21.81289063 -0.48539063 21.00078125 -0.83203125 20.1640625 C-1.94439082 17.69852542 -1.94439082 17.69852542 -5 16 C-7.73872955 15.54227937 -7.73872955 15.54227937 -10.6875 15.375 C-11.68136719 15.30023438 -12.67523437 15.22546875 -13.69921875 15.1484375 C-14.45847656 15.09945312 -15.21773437 15.05046875 -16 15 C-16 14.34 -16 13.68 -16 13 C-15.25234375 12.60167969 -14.5046875 12.20335937 -13.734375 11.79296875 C-12.74953125 11.26316406 -11.7646875 10.73335937 -10.75 10.1875 C-9.77546875 9.66542969 -8.8009375 9.14335937 -7.796875 8.60546875 C-3.02460785 6.10149183 -3.02460785 6.10149183 -0.25 1.8125 C-0.1675 1.214375 -0.085 0.61625 0 0 Z " fill="#53053C" transform="translate(41,21)"/>
<path d="M0 0 C8.25 0 16.5 0 25 0 C24.67 0.66 24.34 1.32 24 2 C20.04 2 16.08 2 12 2 C10.16130724 6.59673189 9.64633966 9.47360931 9.375 14.3125 C9.30023438 15.56675781 9.22546875 16.82101563 9.1484375 18.11328125 C9.09945313 19.06589844 9.05046875 20.01851562 9 21 C6 20 6 20 4 17 C3.875 13.8125 3.875 13.8125 4 11 C3.67 11.33 3.34 11.66 3 12 C2.01 12 1.02 12 0 12 C0 8.04 0 4.08 0 0 Z " fill="#BB149B" transform="translate(0,0)"/>
<path d="M0 0 C0.66 0.33 1.32 0.66 2 1 C1.9175 1.886875 1.835 2.77375 1.75 3.6875 C2.05799529 7.76843758 3.48216631 8.87178238 6 12 C7.20642847 16.22249965 7.52149151 18.0573038 5.375 21.9375 C3 24 3 24 0.3125 24.375 C-2 24 -2 24 -3 23 C-3.08685603 21.43827255 -3.10702219 19.87270656 -3.09765625 18.30859375 C-3.09443359 17.36435547 -3.09121094 16.42011719 -3.08789062 15.44726562 C-3.07951172 14.45404297 -3.07113281 13.46082031 -3.0625 12.4375 C-3.05798828 11.44041016 -3.05347656 10.44332031 -3.04882812 9.41601562 C-3.03700007 6.94395151 -3.02051849 4.47200482 -3 2 C-2.01 2 -1.02 2 0 2 C0 1.34 0 0.68 0 0 Z " fill="#5A0327" transform="translate(3,10)"/>
<path d="M0 0 C0.33 0 0.66 0 1 0 C1.12117188 0.91523437 1.24234375 1.83046875 1.3671875 2.7734375 C1.53476562 3.96195312 1.70234375 5.15046875 1.875 6.375 C2.03742187 7.55835938 2.19984375 8.74171875 2.3671875 9.9609375 C2.7302585 13.09566659 2.7302585 13.09566659 5 15 C4.79532882 17.66072535 4.28758914 19.50940676 2.9375 21.8125 C-0.24555699 23.7634059 -3.32430673 23.1807718 -7 23 C-7 21.68 -7 20.36 -7 19 C-6.34 19 -5.68 19 -5 19 C-4.67 16.69 -4.34 14.38 -4 12 C-3.01 12.33 -2.02 12.66 -1 13 C-1.61875 12.38125 -2.2375 11.7625 -2.875 11.125 C-4.25 9.75 -5.625 8.375 -7 7 C-6.21625 6.401875 -5.4325 5.80375 -4.625 5.1875 C-1.85425677 3.08914751 -1.85425677 3.08914751 0 0 Z " fill="#FCBED7" transform="translate(24,3)"/>
<path d="M0 0 C0.66 0 1.32 0 2 0 C2 14.19 2 28.38 2 43 C-1.8750814 39.1249186 -1.19824952 33.46872783 -1.4375 28.25 C-1.67570718 23.63958927 -2.02105979 19.18475977 -3.125 14.6875 C-4 11 -4 11 -3 8 C-2.01 8 -1.02 8 0 8 C0 5.36 0 2.72 0 0 Z " fill="#930657" transform="translate(46,0)"/>
<path d="M0 0 C0.99 0.33 1.98 0.66 3 1 C4 3.33333333 5 5.66666667 6 8 C6.99 8.33 7.98 8.66 9 9 C9 9.66 9 10.32 9 11 C7.68 11 6.36 11 5 11 C4.67 10.34 4.34 9.68 4 9 C3.34 9 2.68 9 2 9 C2 9.66 2 10.32 2 11 C3.47704212 12.25227484 4.95827399 13.50166522 6.4921875 14.68359375 C8 16 8 16 10 19 C9.67 19.99 9.34 20.98 9 22 C6.4375 23.1875 6.4375 23.1875 4 24 C4.33 22.02 4.66 20.04 5 18 C4.01 18.33 3.02 18.66 2 19 C2 18.01 2 17.02 2 16 C1.01 16 0.02 16 -1 16 C-0.814375 15.38125 -0.62875 14.7625 -0.4375 14.125 C0.23686176 11.95839822 0.23686176 11.95839822 -1 10 C-1.1328125 8.125 -1.1328125 8.125 -1.125 6 C-1.12886719 4.948125 -1.12886719 4.948125 -1.1328125 3.875 C-1 2 -1 2 0 0 Z " fill="#891249" transform="translate(31,3)"/>
<path d="M0 0 C0.721875 0.00257812 1.44375 0.00515625 2.1875 0.0078125 C2.909375 0.00523438 3.63125 0.00265625 4.375 0 C6.1875 0.1328125 6.1875 0.1328125 7.1875 1.1328125 C6.90019945 3.47225986 6.56813221 5.8067268 6.1875 8.1328125 C5.1975 8.1328125 4.2075 8.1328125 3.1875 8.1328125 C2.8575 9.7828125 2.5275 11.4328125 2.1875 13.1328125 C0.3125 12.5703125 0.3125 12.5703125 -1.8125 11.1328125 C-3.0625 7.5078125 -3.0625 7.5078125 -3.8125 4.1328125 C-3.1525 4.1328125 -2.4925 4.1328125 -1.8125 4.1328125 C-2.1425 3.1428125 -2.4725 2.1528125 -2.8125 1.1328125 C-1.8125 0.1328125 -1.8125 0.1328125 0 0 Z " fill="#EDBCC3" transform="translate(39.8125,-0.1328125)"/>
<path d="M0 0 C3.3 0.33 6.6 0.66 10 1 C9.01 1.495 9.01 1.495 8 2 C8 2.99 8 3.98 8 5 C4.70698479 8.29301521 2.98767817 8.16872031 -2 9 C-2 14.28 -2 19.56 -2 25 C-4.2412035 20.517593 -4.15093056 18.53960032 -3.8125 13.625 C-3.73644531 12.33851562 -3.66039062 11.05203125 -3.58203125 9.7265625 C-2.98923753 5.93109129 -1.90209729 3.31200769 0 0 Z " fill="#9D076E" transform="translate(12,1)"/>
<path d="M0 0 C0.33 0 0.66 0 1 0 C1 3.3 1 6.6 1 10 C-4.28 9.34 -9.56 8.68 -15 8 C-15 7.34 -15 6.68 -15 6 C-10.00703705 3.0554321 -5.66442374 2.36504064 0 2 C0 1.34 0 0.68 0 0 Z " fill="#3F041E" transform="translate(40,28)"/>
<path d="M0 0 C0.33 1.32 0.66 2.64 1 4 C2.98 3.01 4.96 2.02 7 1 C7.2226746 2.43534841 7.42761906 3.87345525 7.625 5.3125 C7.74101563 6.11300781 7.85703125 6.91351563 7.9765625 7.73828125 C8 10 8 10 6 13 C3.4375 13.25 3.4375 13.25 1 13 C0 12 0 12 -0.09765625 9.27734375 C-0.08605469 8.17519531 -0.07445312 7.07304687 -0.0625 5.9375 C-0.05347656 4.83277344 -0.04445312 3.72804688 -0.03515625 2.58984375 C-0.02355469 1.73519531 -0.01195312 0.88054688 0 0 Z " fill="#5A0C2C" transform="translate(0,21)"/>
<path d="M0 0 C1.65 0 3.3 0 5 0 C7.06878307 4.38095238 7.06878307 4.38095238 6.75 7.25 C6 9 6 9 4 10 C4.33 10.99 4.66 11.98 5 13 C8.50294871 14.71567661 8.50294871 14.71567661 12 16 C9 18 9 18 6 18 C1.7675967 14.024106 0.75596739 9.56033912 0 4 C0 2.68 0 1.36 0 0 Z " fill="#F282C0" transform="translate(13,13)"/>
<path d="M0 0 C1.98 0.66 3.96 1.32 6 2 C6.33 3.98 6.66 5.96 7 8 C6.01 7.67 5.02 7.34 4 7 C4.33 9.64 4.66 12.28 5 15 C3.35 15 1.7 15 0 15 C0 10.05 0 5.1 0 0 Z " fill="#FCB8D0" transform="translate(0,33)"/>
<path d="M0 0 C0.66 0 1.32 0 2 0 C5.0270774 8.26750171 5.06941893 14.4692299 3 23 C1.00732416 21.13807717 0.07153231 19.61007042 -0.24755859 16.88867188 C-0.29513603 14.33688446 -0.26098224 11.80115255 -0.1875 9.25 C-0.17396484 8.36183594 -0.16042969 7.47367188 -0.14648438 6.55859375 C-0.11121309 4.37177422 -0.06192752 2.18620034 0 0 Z " fill="#7F0952" transform="translate(10,10)"/>
<path d="M0 0 C-1.26941497 3.91402949 -2.51167694 5.79072873 -6 8 C-5.175 8.61875 -4.35 9.2375 -3.5 9.875 C-2.675 10.57625 -1.85 11.2775 -1 12 C-1 12.66 -1 13.32 -1 14 C-2.32 14.33 -3.64 14.66 -5 15 C-5.33 13.68 -5.66 12.36 -6 11 C-7.98491642 11.26676204 -7.98491642 11.26676204 -10 12 C-10.33 12.99 -10.66 13.98 -11 15 C-12.35439668 12.29120665 -12.06501451 9.99066732 -12 7 C-9.34771188 5.92474806 -6.71631546 4.90543849 -4 4 C-4 3.01 -4 2.02 -4 1 C-2 0 -2 0 0 0 Z " fill="#B02A74" transform="translate(24,2)"/>
<path d="M0 0 C0.99 0.33 1.98 0.66 3 1 C3.33 1.99 3.66 2.98 4 4 C3.01 5.485 3.01 5.485 2 7 C-0.6015625 7.29296875 -0.6015625 7.29296875 -3.625 7.1875 C-5.12933594 7.14689453 -5.12933594 7.14689453 -6.6640625 7.10546875 C-7.82035156 7.05326172 -7.82035156 7.05326172 -9 7 C-9.625 5.125 -9.625 5.125 -10 3 C-9.34 2.34 -8.68 1.68 -8 1 C-7.01 1 -6.02 1 -5 1 C-5 1.99 -5 2.98 -5 4 C-4.236875 3.319375 -3.47375 2.63875 -2.6875 1.9375 C-1.800625 1.298125 -0.91375 0.65875 0 0 Z " fill="#A81640" transform="translate(34,41)"/>
<path d="M0 0 C2.34885769 2.87924492 3 4.27472933 3 8 C0.69 8 -1.62 8 -4 8 C-3.814375 7.38125 -3.62875 6.7625 -3.4375 6.125 C-2.76313824 3.95839822 -2.76313824 3.95839822 -4 2 C-5.65 2.33 -7.3 2.66 -9 3 C-9 2.01 -9 1.02 -9 0 C-5.78176644 -1.60911678 -3.4113678 -0.83787981 0 0 Z " fill="#F1A6C0" transform="translate(40,40)"/>
<path d="M0 0 C0.66 0 1.32 0 2 0 C4.41685712 4.22949995 5.34833144 7.12335991 5 12 C3.68 12 2.36 12 1 12 C0.01 8.7 -0.98 5.4 -2 2 C-1.34 1.34 -0.68 0.68 0 0 Z " fill="#FAD9F1" transform="translate(8,30)"/>
<path d="M0 0 C0.99 0 1.98 0 3 0 C3 0.66 3 1.32 3 2 C3.74765625 1.95359375 4.4953125 1.9071875 5.265625 1.859375 C13.40994854 1.56089194 13.40994854 1.56089194 16.6875 4 C17.120625 4.66 17.55375 5.32 18 6 C15 6 15 6 12 4 C8.95875996 3.52618362 6.04054497 3.5112395 3 4 C1.01760473 5.86124923 1.01760473 5.86124923 0 8 C-0.66 8 -1.32 8 -2 8 C-2.33 9.98 -2.66 11.96 -3 14 C-3.33 14 -3.66 14 -4 14 C-4 11.03 -4 8.06 -4 5 C-2.35 4.67 -0.7 4.34 1 4 C0.67 2.68 0.34 1.36 0 0 Z " fill="#EE95B8" transform="translate(22,34)"/>
<path d="M0 0 C0.99 0.33 1.98 0.66 3 1 C4 3.33333333 5 5.66666667 6 8 C6.99 8.33 7.98 8.66 9 9 C9 9.66 9 10.32 9 11 C7.68 11 6.36 11 5 11 C4.67 10.34 4.34 9.68 4 9 C3.34 9 2.68 9 2 9 C1.34 9.99 0.68 10.98 0 12 C-1.12256131 9.75487738 -1.13413762 8.48543351 -1.125 6 C-1.12886719 4.948125 -1.12886719 4.948125 -1.1328125 3.875 C-1 2 -1 2 0 0 Z " fill="#850767" transform="translate(31,3)"/>
<path d="M0 0 C0.99 0.33 1.98 0.66 3 1 C3 1.66 3 2.32 3 3 C6.465 2.505 6.465 2.505 10 2 C10.33 2.99 10.66 3.98 11 5 C10.67 5.66 10.34 6.32 10 7 C6.06225823 7.36630156 4.43460229 7.30233203 1.125 5 C0.42375 4.34 -0.2775 3.68 -1 3 C-0.67 2.01 -0.34 1.02 0 0 Z " fill="#700354" transform="translate(33,11)"/>
<path d="M0 0 C0.66 0 1.32 0 2 0 C2 3.96 2 7.92 2 12 C-1 11 -1 11 -3 8 C-3 4 -3 4 -1 2 C-0.67 1.34 -0.34 0.68 0 0 Z " fill="#D5408D" transform="translate(7,9)"/>
<path d="M0 0 C1.32 0 2.64 0 4 0 C4 2.66666667 4 5.33333333 4 8 C2.0625 8.5625 2.0625 8.5625 0 9 C-0.33 8.67 -0.66 8.34 -1 8 C-1.66 8 -2.32 8 -3 8 C-1.125 1.125 -1.125 1.125 0 0 Z " fill="#9E047A" transform="translate(4,4)"/>
<path d="M0 0 C0.99 0.33 1.98 0.66 3 1 C3.66015625 2.99609375 3.66015625 2.99609375 4.0625 5.4375 C4.63171515 9.14163657 4.63171515 9.14163657 7 12 C6.01 12.495 6.01 12.495 5 13 C0.17970402 9.14376321 0.17970402 9.14376321 -0.33203125 5.88671875 C-0.3145776 3.92143786 -0.16596091 1.95833873 0 0 Z " fill="#A81063" transform="translate(25,4)"/>
<path d="M0 0 C1.98 0 3.96 0 6 0 C3.525 5.94 3.525 5.94 1 12 C0.67 12 0.34 12 0 12 C0 8.04 0 4.08 0 0 Z " fill="#C61997" transform="translate(0,0)"/>
<path d="M0 0 C3.3 0.33 6.6 0.66 10 1 C9.01 1.495 9.01 1.495 8 2 C8 2.66 8 3.32 8 4 C4.7 4.33 1.4 4.66 -2 5 C-1.34 3.35 -0.68 1.7 0 0 Z " fill="#9E0C8A" transform="translate(12,1)"/>
<path d="M0 0 C0.33 1.32 0.66 2.64 1 4 C2.32 3.34 3.64 2.68 5 2 C5.625 4.3125 5.625 4.3125 6 7 C5.01 8.485 5.01 8.485 4 10 C2.68 9.67 1.36 9.34 0 9 C0 6.03 0 3.06 0 0 Z " fill="#43032A" transform="translate(0,21)"/>
<path d="M0 0 C1.65 0.33 3.3 0.66 5 1 C4.67 1.66 4.34 2.32 4 3 C3.34 2.67 2.68 2.34 2 2 C2.33 4.64 2.66 7.28 3 10 C1.35 10 -0.3 10 -2 10 C-1.855625 9.46375 -1.71125 8.9275 -1.5625 8.375 C-0.90546252 5.60084173 -0.44780052 2.81474612 0 0 Z " fill="#F9ADC9" transform="translate(2,38)"/>
<path d="M0 0 C0.99 0.66 1.98 1.32 3 2 C3 2.66 3 3.32 3 4 C3.66 4.33 4.32 4.66 5 5 C1.37 5 -2.26 5 -6 5 C-6 4.34 -6 3.68 -6 3 C-4.02 2.01 -2.04 1.02 0 0 Z " fill="#4F0927" transform="translate(31,31)"/>
<path d="M0 0 C0.99 0 1.98 0 3 0 C3 0.99 3 1.98 3 3 C3.66 3 4.32 3 5 3 C5.33 2.34 5.66 1.68 6 1 C6.33 2.65 6.66 4.3 7 6 C5.68 6.33 4.36 6.66 3 7 C2.67 6.34 2.34 5.68 2 5 C1.01 4.34 0.02 3.68 -1 3 C-0.67 2.01 -0.34 1.02 0 0 Z " fill="#F2A0CC" transform="translate(30,19)"/>
<path d="M0 0 C1.32 0.33 2.64 0.66 4 1 C3.01 1 2.02 1 1 1 C1 1.66 1 2.32 1 3 C2.093125 2.95875 3.18625 2.9175 4.3125 2.875 C8 3 8 3 11 5 C11 5.66 11 6.32 11 7 C9.68 7.33 8.36 7.66 7 8 C6.67 6.68 6.34 5.36 6 4 C4.01508358 4.26676204 4.01508358 4.26676204 2 5 C1.67 5.99 1.34 6.98 1 8 C-0.35439668 5.29120665 -0.06501451 2.99066732 0 0 Z " fill="#A0245E" transform="translate(12,9)"/>
<path d="M0 0 C0.66 0.33 1.32 0.66 2 1 C1.979375 1.94875 1.95875 2.8975 1.9375 3.875 C1.77448174 6.90666283 1.77448174 6.90666283 3 9 C2.01 9.33 1.02 9.66 0 10 C-2.62386487 6.93882432 -3 6.26826873 -3 2 C-2.01 2 -1.02 2 0 2 C0 1.34 0 0.68 0 0 Z " fill="#7C0653" transform="translate(3,10)"/>
<path d="M0 0 C0.33 0.66 0.66 1.32 1 2 C1.99 2.33 2.98 2.66 4 3 C4 3.99 4 4.98 4 6 C4.66 6 5.32 6 6 6 C6 6.66 6 7.32 6 8 C4.02 8 2.04 8 0 8 C0 5.36 0 2.72 0 0 Z " fill="#FCB5CD" transform="translate(19,40)"/>
<path d="M0 0 C1.65 0 3.3 0 5 0 C5 1.32 5 2.64 5 4 C4.34 4 3.68 4 3 4 C3.309375 4.763125 3.61875 5.52625 3.9375 6.3125 C4.67893593 8.18789677 5.36228217 10.08684652 6 12 C5.01 11.67 4.02 11.34 3 11 C1.68964993 7.82757352 1 5.44118336 1 2 C0.67 1.34 0.34 0.68 0 0 Z " fill="#9E2381" transform="translate(33,0)"/>
<path d="M0 0 C0.99 0 1.98 0 3 0 C3.33 1.98 3.66 3.96 4 6 C2.35 6 0.7 6 -1 6 C-1.625 4.125 -1.625 4.125 -2 2 C-1.34 1.34 -0.68 0.68 0 0 Z " fill="#AF1F49" transform="translate(26,42)"/>
<path d="M0 0 C1.65 0 3.3 0 5 0 C4.125 5.75 4.125 5.75 3 8 C2.34 8 1.68 8 1 8 C0.40267181 5.23735711 0 2.83967231 0 0 Z " fill="#FDBFDC" transform="translate(24,17)"/>
<path d="M0 0 C1.65 0.99 3.3 1.98 5 3 C4.67 4.65 4.34 6.3 4 8 C3.01 8.33 2.02 8.66 1 9 C0.67 6.03 0.34 3.06 0 0 Z " fill="#57043B" transform="translate(0,16)"/>
<path d="M0 0 C0.66 0 1.32 0 2 0 C2.66 3.63 3.32 7.26 4 11 C2.68 10.67 1.36 10.34 0 10 C0 6.7 0 3.4 0 0 Z " fill="#880459" transform="translate(10,10)"/>
<path d="M0 0 C0.99 0 1.98 0 3 0 C3.33 1.65 3.66 3.3 4 5 C4 4.34 4 3.68 4 3 C4.66 3 5.32 3 6 3 C5.67 4.65 5.34 6.3 5 8 C3.0625 7.25 3.0625 7.25 1 6 C0.20124132 3.86997684 0 2.26695035 0 0 Z " fill="#F9BEEF" transform="translate(37,5)"/>
<path d="M0 0 C0.66 0 1.32 0 2 0 C2 2.97 2 5.94 2 9 C1.34 9 0.68 9 0 9 C-0.33 10.32 -0.66 11.64 -1 13 C-1.99 12.34 -2.98 11.68 -4 11 C-3.67 10.01 -3.34 9.02 -3 8 C-2.01 8 -1.02 8 0 8 C0 5.36 0 2.72 0 0 Z " fill="#C72E84" transform="translate(46,0)"/>
<path d="M0 0 C3.3 1.65 6.6 3.3 10 5 C7 7 7 7 4 7 C0 2.65714286 0 2.65714286 0 0 Z " fill="#C63D70" transform="translate(15,24)"/>
<path d="M0 0 C10.15317287 -0.63019694 10.15317287 -0.63019694 13.6875 2 C14.120625 2.66 14.55375 3.32 15 4 C12 4 12 4 9 2 C6.72087062 1.54605448 6.72087062 1.54605448 4.3125 1.375 C3.50425781 1.30023438 2.69601563 1.22546875 1.86328125 1.1484375 C1.24839844 1.09945312 0.63351563 1.05046875 0 1 C0 0.67 0 0.34 0 0 Z " fill="#C97A94" transform="translate(25,36)"/>
<path d="M0 0 C-0.125 1.875 -0.125 1.875 -1 4 C-4.0625 5.25 -4.0625 5.25 -7 6 C-7.66 5.34 -8.32 4.68 -9 4 C-2.25 0 -2.25 0 0 0 Z " fill="#530E31" transform="translate(41,26)"/>
<path d="M0 0 C0.33 0.99 0.66 1.98 1 3 C0.236875 2.814375 -0.52625 2.62875 -1.3125 2.4375 C-4.08967375 1.77180827 -4.08967375 1.77180827 -7 3 C-7 2.01 -7 1.02 -7 0 C-4.3333581 -1.33332095 -2.83319697 -0.67102033 0 0 Z " fill="#FDB1CF" transform="translate(38,40)"/>
<path d="M0 0 C1.98 0 3.96 0 6 0 C6 0.99 6 1.98 6 3 C4.35 3.33 2.7 3.66 1 4 C0.67 2.68 0.34 1.36 0 0 Z " fill="#A72556" transform="translate(17,35)"/>
<path d="M0 0 C0.99 0.33 1.98 0.66 3 1 C3.6875 3.0625 3.6875 3.0625 4 5 C2.68 5 1.36 5 0 5 C0 6.65 0 8.3 0 10 C-0.33 10 -0.66 10 -1 10 C-1.125 2.25 -1.125 2.25 0 0 Z " fill="#980677" transform="translate(31,3)"/>
<path d="M0 0 C0 0.99 0 1.98 0 3 C-3.465 4.485 -3.465 4.485 -7 6 C-7.66 5.01 -8.32 4.02 -9 3 C-7.88625 2.87625 -6.7725 2.7525 -5.625 2.625 C-1.96896323 2.3534187 -1.96896323 2.3534187 0 0 Z " fill="#EA7AA6" transform="translate(39,24)"/>
<path d="M0 0 C0.99 0.66 1.98 1.32 3 2 C2.67 3.32 2.34 4.64 2 6 C0.35 6.33 -1.3 6.66 -3 7 C-2.67 6.01 -2.34 5.02 -2 4 C-1.34 4 -0.68 4 0 4 C0 2.68 0 1.36 0 0 Z " fill="#FDA4CA" transform="translate(19,18)"/>
<path d="M0 0 C0.33 0 0.66 0 1 0 C1 2.31 1 4.62 1 7 C-1.97 6.505 -1.97 6.505 -5 6 C-3.35830472 3.97945196 -1.69088222 1.97956942 0 0 Z " fill="#F69ED2" transform="translate(24,3)"/>
<path d="M0 0 C1.65 1.65 3.3 3.3 5 5 C4.34 6.65 3.68 8.3 3 10 C0.70366176 6.55549263 0.45983515 4.06187717 0 0 Z " fill="#F79BC5" transform="translate(14,24)"/>
<path d="M0 0 C1.98 0 3.96 0 6 0 C5.01 1.98 4.02 3.96 3 6 C2.67 4.68 2.34 3.36 2 2 C1.34 2 0.68 2 0 2 C0 1.34 0 0.68 0 0 Z " fill="#CE24A5" transform="translate(0,0)"/>
<path d="M0 0 C1.32 0 2.64 0 4 0 C3.67 1.65 3.34 3.3 3 5 C1.35 4.67 -0.3 4.34 -2 4 C-1.34 2.68 -0.68 1.36 0 0 Z " fill="#B10C92" transform="translate(6,0)"/>
<path d="M0 0 C1.98 0.495 1.98 0.495 4 1 C4 2.65 4 4.3 4 6 C2.68 5.67 1.36 5.34 0 5 C0.33 4.34 0.66 3.68 1 3 C0.34 3 -0.32 3 -1 3 C-0.67 2.01 -0.34 1.02 0 0 Z " fill="#F9C3CB" transform="translate(43,0)"/>
<path d="M0 0 C0.33 1.65 0.66 3.3 1 5 C-1.88575819 4.60196439 -2.82189513 4.20990931 -4.75 1.9375 C-5.1625 1.298125 -5.575 0.65875 -6 0 C-3.50907189 -1.24546405 -2.58919267 -0.7767578 0 0 Z " fill="#F9B0CE" transform="translate(26,12)"/>
<path d="M0 0 C0.66 0.33 1.32 0.66 2 1 C2.625 3.5625 2.625 3.5625 3 6 C1.68 6.33 0.36 6.66 -1 7 C-1.625 5.1875 -1.625 5.1875 -2 3 C-1.34 2.01 -0.68 1.02 0 0 Z " fill="#A1166D" transform="translate(5,6)"/>
<path d="M0 0 C1.9375 0.3125 1.9375 0.3125 4 1 C4.33 1.99 4.66 2.98 5 4 C3.35 4 1.7 4 0 4 C0 2.68 0 1.36 0 0 Z " fill="#DD1451" transform="translate(5,44)"/>
<path d="M0 0 C0.99 0.33 1.98 0.66 3 1 C2.67 1.99 2.34 2.98 2 4 C-0.5625 5.1875 -0.5625 5.1875 -3 6 C-2.01 4.02 -1.02 2.04 0 0 Z " fill="#A72557" transform="translate(38,21)"/>
<path d="M0 0 C0 0.66 0 1.32 0 2 C-1.65 2.33 -3.3 2.66 -5 3 C-5 2.34 -5 1.68 -5 1 C-5.99 0.67 -6.98 0.34 -8 0 C-4.94736336 -0.98120464 -3.05263664 -0.98120464 0 0 Z " fill="#750561" transform="translate(44,14)"/>
</svg>
